<?xml version="1.0" encoding="UTF-8"?>
<svg id="Layer_2" data-name="Layer 2" xmlns="http://www.w3.org/2000/svg" viewBox="0 0 1963.39 937.94">
  <defs>
    <style>
      .cls-1 {
        fill: #4e8d3c;
      }

      .cls-2 {
        fill: #1da496;
      }

      .cls-3 {
        fill: #2ca6a0;
      }

      .cls-4 {
        fill: #529550;
      }

      .cls-5 {
        fill: #ff9b0f;
      }

      .cls-6 {
        fill: #9f6943;
      }

      .cls-7 {
        fill: #f05240;
      }

      .cls-8 {
        fill: #c73737;
      }

      .cls-9 {
        fill: #e87866;
      }

      .cls-10 {
        fill: #f39383;
      }

      .cls-11 {
        fill: #ffa480;
      }

      .cls-12 {
        fill: #da3c30;
      }

      .cls-13 {
        fill: #ff5744;
      }

      .cls-14 {
        fill: #edf1ff;
      }

      .cls-15 {
        fill: #cc3839;
      }

      .cls-16 {
        fill: #cf4737;
      }

      .cls-17 {
        fill: #e23e3f;
      }

      .cls-18 {
        fill: #f7b84f;
      }

      .cls-19 {
        fill: #b0595b;
      }

      .cls-20 {
        fill: #f09ea0;
      }

      .cls-21 {
        fill: #62b360;
      }

      .cls-22 {
        fill: #d17f0c;
      }

      .cls-23 {
        fill: #ed900e;
      }

      .cls-24 {
        fill: #fff;
      }

      .cls-25 {
        fill: #c68e5f;
      }

      .cls-26 {
        fill: #4b75de;
      }

      .cls-27 {
        fill: #fffefa;
      }

      .cls-28 {
        fill: #805435;
      }

      .cls-29 {
        fill: #fbb99f;
      }

      .cls-30 {
        fill: #fbccba;
      }

      .cls-31 {
        fill: #4b92de;
      }

      .cls-32 {
        fill: #7d2d30;
      }

      .cls-33 {
        fill: #f0797b;
      }

      .cls-34 {
        fill: #c58c5f;
      }

      .cls-35 {
        fill: #4a2d1f;
      }

      .cls-36 {
        fill: #d1f9ff;
      }

      .cls-37 {
        fill: #ffa826;
      }

      .cls-38 {
        fill: #3a692c;
      }

      .cls-39 {
        fill: #39d5cd;
      }

      .cls-40 {
        fill: #e24242;
      }

      .cls-41 {
        fill: #4e2f1b;
      }
    </style>
  </defs>
  <g id="Layer_1-2" data-name="Layer 1">
    <g id="Santa_Claus_with_Sled" data-name="Santa Claus with Sled">
      <g>
        <rect class="cls-1" x="348.96" y="288.08" width="146.79" height="212.14" transform="translate(-133.08 552.99) rotate(-58.98)"/>
        <path class="cls-38" d="M546.96,392.75l-71.53,118.96-60.18-36.19c5.75-22.02,8.39-41.13,8.98-57.58.78-21.73-2.03-38.8-5.99-51.81-7.23-23.73-18.28-33.85-18.28-33.85l-1.21-3.33s-19.7-28.48,29.28-17.03c9.86,2.31,22.53,6.24,38.72,12.35,40.11,15.16,61.8,35.96,73.44,55.09,2.8,4.58,5.02,9.09,6.78,13.39Z"/>
        <rect class="cls-1" x="431.21" y="219.51" width="51.66" height="233.89" transform="translate(-66.83 554.75) rotate(-58.98)"/>
        <path class="cls-5" d="M424.23,417.94l-27.81,46.25-27.28-16.4,49.11-81.66c3.96,13.01,6.76,30.08,5.99,51.81Z"/>
        <path class="cls-22" d="M455.62,365.74l-31.39,52.2c.78-21.73-2.03-38.8-5.99-51.81l10.1-16.79,27.28,16.4Z"/>
        <rect class="cls-5" x="429.46" y="319.49" width="51.66" height="31.83" transform="translate(-66.77 552.74) rotate(-58.98)"/>
        <path class="cls-5" d="M574.26,334.41c2.6-6.8,1.57-15.5-5.39-25.83-17.32-25.68-56.72-20.67-77.16-15.94-7.8,1.8-12.83,3.56-12.83,3.56l-10.27,17.08s2.99,1.8,7.76,4.67l48.63,29.24c15.33,9.22,42.98,3.8,49.27-12.77ZM483.2,314.34c-1.18-.9-2.35-1.84-3.53-2.8-.04-.19,2.81-.74,7.5-1.35,16.92-2.22,57.7-5.31,71.47,4.99.67.49,1.26,1.02,1.79,1.57.02.02.05.04.08.08.77.81,1.39,1.7,1.85,2.65,4.03,22.63-37.79,26.77-79.16-5.14Z"/>
        <path class="cls-5" d="M474.61,284.17c-4.95-19.66-18.88-59.45-50.81-62.82-12.4-1.31-20.55,1.86-25.35,7.35-11.69,13.32-3.51,40.29,11.82,49.5l51.08,30.71c3.33,2,5.31,3.19,5.31,3.19l10.27-17.08s-.65-4.32-2.32-10.86ZM417.23,232.21c1.05-.05,2.13.09,3.21.39.04,0,.07.03.1.03.74.2,1.48.48,2.23.84,17.07,8.05,35.16,52.4,39.34,64.82.7,2.02,1.01,3.19.9,3.23-.53-.22-1.06-.44-1.58-.68-49.55-21.31-66.45-61.45-44.19-68.63Z"/>
        <path class="cls-23" d="M476.93,295.03l-10.27,17.08s-1.99-1.19-5.31-3.19c-.55-2.48-.54-5.25.07-8.08.52.24,1.05.47,1.58.68.11-.04-.2-1.21-.9-3.23.55-1.65,1.31-3.29,2.27-4.88,2.65-4.4,6.35-7.6,10.23-9.23,1.67,6.54,2.32,10.86,2.32,10.86Z"/>
        <path class="cls-23" d="M479.67,311.54c1.17.96,2.35,1.9,3.53,2.8-2.14,1.73-4.49,2.96-6.83,3.61-4.77-2.87-7.76-4.67-7.76-4.67l10.27-17.08s5.03-1.76,12.83-3.56c.99,4.64.02,10.26-3.05,15.36-.46.77-.96,1.49-1.48,2.19-4.69.61-7.54,1.16-7.5,1.35Z"/>
        <path class="cls-22" d="M524.99,347.19c-21.62-13-56.39-33.91-56.39-33.91l1.65-2.75c3.45-.07,6.64.25,9.42,1.01,42.47,34.93,86.82,31.21,82.68,7.94-.45-.95-1.08-1.84-1.85-2.65,3.28,3.03,10.1,9.88,13.75,17.58-6.28,16.58-33.94,21.99-49.27,12.77Z"/>
        <path class="cls-22" d="M410.27,278.2c21.62,13,56.39,33.91,56.39,33.91l1.65-2.75c-1.56-3.08-3.34-5.75-5.31-7.84-50.77-21.14-68.27-62.06-45.78-69.31,1.05-.05,2.13.09,3.21.39-4.22-1.48-13.46-4.29-21.98-3.9-11.69,13.32-3.51,40.29,11.82,49.5Z"/>
        <path class="cls-5" d="M474.47,316.81l-11.73-7.06c3.54-9.54,7.7-18.18,14.13-23.49,5.49-.26,9.4,2.09,11.73,7.06-2.77,9.94-6.92,18.38-14.13,23.49Z"/>
        <path class="cls-5" d="M470.36,294.71s-32.51-8.16-36.85-2.54c-4.56,5.9-66.3,69.87-67.52,68.08l18.15-9.64s-6.71,18.31-5.56,19.34c1.91,1.7,65.43-66.46,64.31-70.14l25.12-1.2,2.35-3.9Z"/>
        <path class="cls-5" d="M484.62,303.29s22.45,24.88,19.52,31.36c-3.07,6.8-30.63,91.32-28.47,91.56v-20.55s-13.03,14.51-14.48,13.98c-2.4-.89,28.03-88.95,31.8-89.69l-10.72-22.75,2.35-3.9Z"/>
      </g>
      <g>
        <polygon class="cls-31" points="448.13 134.49 438.51 276.22 252.92 276.22 243.3 134.49 448.13 134.49"/>
        <path class="cls-26" d="M447.56,142.95l-9.05,133.28h-61.44c-5.25-19.37-11.75-35.52-18.79-48.91-9.51-18.08-19.85-30.89-29.3-39.87-17.56-16.67-31.49-19.7-31.49-19.7l-2.68-2.27s-30.65-14.72,14.69-30.99c9.25-3.32,21.69-6.7,38.2-10.05,41.24-8.33,69.54-1.12,88.17,10.05,4.43,2.64,8.31,5.52,11.7,8.46Z"/>
        <polygon class="cls-31" points="460.23 113.15 456.14 167.75 235.28 167.75 231.2 113.15 460.23 113.15"/>
        <path class="cls-7" d="M358.29,227.32l-.43,48.91h-27.85l-1.02-88.78c9.45,8.98,19.8,21.79,29.3,39.87Z"/>
        <path class="cls-16" d="M358.82,167.75l-.53,59.57c-9.51-18.08-19.85-30.89-29.3-39.87l-.23-19.7h30.06Z"/>
        <polygon class="cls-7" points="359.3 113.15 358.82 167.75 328.76 167.75 328.13 113.15 359.3 113.15"/>
        <path class="cls-7" d="M445.65,72.26c-.76-8.33-5.7-16.45-16.85-22.69-28.1-15.71-60.64,13.58-75.96,30.44-5.77,6.34-9.15,10.98-9.15,10.98l.03,22.16h64.43c17.51,0,39.37-20.99,37.5-40.89ZM356.55,105.87c-1.45-.19-2.91-.4-4.39-.64-.13-.16,2.01-2.31,5.69-5.58,13.39-11.94,47.63-39.22,64.86-37.19.83.09,1.61.26,2.34.5.03.02.06.02.1.03,1.07.35,2.05.86,2.9,1.54,14.04,19.95-20.72,47.99-71.51,41.35Z"/>
        <path class="cls-7" d="M333.84,81.79c-14.64-16.49-48.61-48.51-77.68-32.22-11.13,6.24-16.02,14.36-16.76,22.69-1.79,19.9,20.15,40.89,37.66,40.89h64.43l-.06-22.16s-2.78-3.8-7.6-9.21ZM256.96,64.52c.85-.68,1.83-1.19,2.9-1.54.04-.02.08-.02.1-.03.73-.24,1.51-.41,2.34-.5,18.9-2.23,58.29,30.73,68.3,40.22,1.63,1.52,2.5,2.45,2.42,2.56-.56.1-1.12.19-1.68.26-52.25,8.01-88.57-20.66-74.38-40.96Z"/>
        <path class="cls-16" d="M341.44,90.99l.06,22.16h-6.07c-1.73-2.02-3.15-4.64-4.09-7.67.56-.07,1.12-.16,1.68-.26.08-.1-.79-1.03-2.42-2.56-.39-1.89-.6-3.89-.62-5.98-.06-5.77,1.41-11.03,3.86-14.91,4.82,5.4,7.6,9.21,7.6,9.21Z"/>
        <path class="cls-16" d="M352.16,105.23c1.48.24,2.94.46,4.39.64-.95,2.86-2.31,5.35-3.97,7.28h-8.87l-.03-22.16s3.38-4.64,9.15-10.98c3.21,3.96,5.23,9.99,5.18,16.68,0,1-.07,1.98-.16,2.95-3.67,3.27-5.81,5.42-5.69,5.58Z"/>
        <path class="cls-16" d="M408.15,113.15h-64.43v-3.53c2.87-2.03,5.72-3.54,8.45-4.4,53.2,8.86,90.32-20.2,75.89-40.7-.85-.68-1.83-1.19-2.9-1.54,4.37,1.06,13.67,3.8,20.49,9.28,1.87,19.9-19.99,40.89-37.5,40.89Z"/>
        <path class="cls-16" d="M277.06,113.15c24.71,0,64.43,0,64.43,0v-3.53c-2.89-2.03-5.75-3.54-8.48-4.4-53.16,8.86-90.4-20.2-76.06-40.7.85-.68,1.83-1.19,2.9-1.54-4.36,1.06-13.66,3.8-20.45,9.28-1.79,19.9,20.15,40.89,37.66,40.89Z"/>
        <path class="cls-13" d="M350.42,113.15h-13.41c-1.92-11.04-2.87-21.73-.17-30.65,4.55-3.49,9.12-3.49,13.68,0,2.69,11.26,3.42,21.72-.09,30.65Z"/>
        <path class="cls-7" d="M335.7,94.5s-31.49,10.88-32.09,18.65c-.62,8.08-16.43,96.57-18.28,95.7l9.11-17.17s4.04,18.65,5.44,18.93c2.32.46,18.33-92.77,15.49-95.58l20.35-15.43-.03-5.1Z"/>
        <path class="cls-7" d="M352.2,94.5s31.51,10.88,32.13,18.65c.64,8.08,16.65,96.57,18.5,95.7l-9.15-17.17s-4,18.65-5.4,18.93c-2.32.46-18.55-92.77-15.71-95.58l-20.39-15.43.02-5.1Z"/>
      </g>
      <g>
        <rect class="cls-39" x="75.94" y="255.21" width="283.51" height="114.68"/>
        <rect class="cls-3" x="137.57" y="278.16" width="221.88" height="91.74"/>
        <rect class="cls-39" x="67.43" y="239.79" width="300.5" height="40.36"/>
        <rect class="cls-2" x="131.71" y="239.79" width="236.23" height="40.35" transform="translate(499.65 519.93) rotate(180)"/>
        <path class="cls-22" d="M214.01,327.73v42.17h-24.87v-74.45c7.89,7.12,16.64,17.42,24.87,32.28Z"/>
        <path class="cls-22" d="M214.01,280.14v47.58c-8.23-14.86-16.98-25.16-24.87-32.28v-15.31h24.87Z"/>
        <rect class="cls-5" x="189.15" y="239.79" width="24.87" height="40.36"/>
        <path class="cls-5" d="M280.83,211.4c-1-5.6-5.19-11.01-14.01-15.12-21.94-10.22-46.3,9-58.08,20.39-4.5,4.35-7.16,7.55-7.16,7.55v15.57h51.41c13.97,0,30.31-14.76,27.84-28.39ZM211.78,234.62c-1.15-.13-2.32-.28-3.49-.45-.1-.11,1.59-1.63,4.48-3.92,10.43-8.3,36.49-26.79,49.86-25.44.65.06,1.25.17,1.83.33.02.01.05.01.08.02.84.23,1.62.58,2.3,1.03,11.81,13.53-14.53,33.14-55.07,28.43Z"/>
        <path class="cls-5" d="M193.89,217.88c-11.23-11.17-36.58-32.2-59.31-21.6-8.83,4.11-13.01,9.52-14.01,15.12-2.47,13.63,13.87,28.39,27.84,28.39h51.41v-15.57s-2.17-2.63-5.92-6.34ZM134.55,206.2c.69-.45,1.47-.8,2.3-1.03.03-.01.06-.01.08-.02.58-.16,1.18-.27,1.83-.33,14.67-1.49,44.63,20.93,52.44,27.56,1.28,1.07,1.96,1.73,1.9,1.8-.44.07-.89.13-1.33.18-41.75,5.68-69.23-14.39-57.22-28.15Z"/>
        <path class="cls-23" d="M199.81,224.22v15.57h-4.84c-1.36-1.44-2.48-3.3-3.2-5.44.44-.05.89-.11,1.33-.18.06-.07-.62-.73-1.9-1.8-.29-1.32-.44-2.73-.44-4.19,0-4.01,1.19-7.64,3.13-10.3,3.75,3.71,5.92,6.34,5.92,6.34Z"/>
        <path class="cls-23" d="M208.29,234.17c1.17.17,2.34.32,3.49.45-.74,2.02-1.81,3.79-3.12,5.17h-7.08v-15.57s2.66-3.2,7.16-7.55c2.53,2.71,4.14,6.86,4.14,11.51,0,.7-.04,1.38-.11,2.06-2.89,2.29-4.58,3.81-4.48,3.92Z"/>
        <path class="cls-22" d="M252.99,239.79h-51.41v-2.51c2.28-1.44,4.55-2.51,6.71-3.11,42.5,6.29,70.69-14.06,58.55-27.97-.69-.45-1.47-.8-2.3-1.03,3.42.71,10.74,2.55,16.29,6.24,2.47,13.63-13.87,28.39-27.84,28.39Z"/>
        <path class="cls-22" d="M148.4,239.79c19.71,0,51.41,0,51.41,0v-2.51c-2.28-1.44-4.55-2.51-6.71-3.11-42.5,6.29-70.69-14.06-58.55-27.97.69-.45,1.47-.8,2.3-1.03-3.42.71-10.74,2.55-16.29,6.24-2.47,13.63,13.87,28.39,27.84,28.39Z"/>
        <path class="cls-5" d="M206.93,239.79h-10.7c-1.47-7.81-2.16-15.27,0-21.42,3.57-2.39,7.13-2.39,10.7,0,2.15,7.77,2.76,15.09,0,21.42Z"/>
        <path class="cls-5" d="M195.28,226.66s-25.05,7.62-25.7,13.14c-.68,5.79-16.26,73.47-17.8,72.76l8.27-13.76s2.88,14.96,4.07,15.19c1.96.37,17.05-70.84,14.82-72.85l16.34-10.92v-3.56Z"/>
        <path class="cls-5" d="M208.29,226.66s25.05,7.62,25.7,13.14c.68,5.79,16.26,73.47,17.8,72.76l-8.27-13.76s-2.88,14.96-4.07,15.19c-1.96.37-17.05-70.84-14.82-72.85l-16.34-10.92v-3.56Z"/>
      </g>
      <g>
        <path class="cls-28" d="M1533.97,849.23l3.33,19.58h-40.36s-3.47-19.58-3.47-19.58l-1.63-9.18-20.88-117.99c35.56-55.41,0-118.42,0-118.42,0,0,86.18-23.85,90.96,24.71,4.79,48.56-46.52,111.92-46.52,111.92l17.01,99.78,1.56,9.18Z"/>
        <polygon class="cls-35" points="1537.3 868.81 1496.94 868.81 1493.48 849.23 1533.97 849.23 1537.3 868.81"/>
        <path class="cls-6" d="M1558.78,679.84c-16.99-1.7-50.78-.7-82.62-10.47-35.88-11-69.31-35.64-73.53-93.11-1.42-19.55.15-47.46.15-47.46-26.73-5.41-41.41-47.86-12.39-78.39.02-.02.02-.03.02-.03,9.4,16.7,22.43,29.29,39.62,37.15,29.14-18.1,85.95-16.8,147.58-14.79,28.33.93,50.9-23.53,47.7-51.7l-4.62-40.81,104.83,6.61c1.37,6.66,10.4,31.52,17.93,64.21,21.52,93.32,30.94,250.33-184.68,228.79Z"/>
        <polygon class="cls-28" points="1735.73 611.72 1735.73 868.81 1690.63 868.81 1689 849.23 1688.25 840.05 1669.61 614.97 1735.73 611.72"/>
        <path class="cls-25" d="M1558.78,679.84c-16.99-1.7-50.78-.7-82.62-10.47l4.99-39.06s51.6,16.66,133.23,0c81.63-16.64,67.34-167.51,67.34-167.51l61.74-11.75c21.52,93.32,30.94,250.33-184.68,228.79Z"/>
        <polygon class="cls-6" points="1658.68 583.03 1658.68 868.81 1613.58 868.81 1612.13 849.23 1611.2 836.84 1592.56 586.64 1658.68 583.03"/>
        <polygon class="cls-35" points="1658.68 849.23 1658.68 868.81 1613.58 868.81 1612.13 849.23 1658.68 849.23"/>
        <polygon class="cls-35" points="1735.73 849.23 1735.73 868.81 1690.63 868.81 1689 849.23 1735.73 849.23"/>
        <path class="cls-6" d="M1470.44,849.23l3.33,19.58h-40.36l-3.47-19.58-1.63-9.18-20.88-117.99c35.56-55.41,0-118.42,0-118.42,0,0,86.18-23.85,90.96,24.71,4.79,48.56-46.52,111.92-46.52,111.92l17.01,99.78,1.56,9.18Z"/>
        <polygon class="cls-35" points="1473.77 868.81 1433.4 868.81 1429.94 849.23 1470.44 849.23 1473.77 868.81"/>
        <path class="cls-25" d="M1407.43,515.34l-4.65,13.45c-26.73-5.41-41.41-47.86-12.39-78.39-.55,1.46-17.47,47.36,17.04,64.93Z"/>
        <path class="cls-25" d="M1537.47,509.22c0,5.39-6.62,9.76-14.79,9.76-8.17,0-14.79-4.37-14.79-9.76s6.62-9.76,14.79-9.76c8.17,0,14.79,4.37,14.79,9.76Z"/>
        <path class="cls-25" d="M1501.2,531.03c0,3.46-4.25,6.26-9.49,6.26-5.24,0-9.49-2.8-9.49-6.26,0-3.46,4.25-6.26,9.49-6.26,5.24,0,9.49,2.8,9.49,6.26Z"/>
        <ellipse class="cls-25" cx="1478.16" cy="509.22" rx="9.49" ry="6.26"/>
        <g>
          <path class="cls-36" d="M1525.53,468.59c-31.72-.91-60.33-12.32-65.51-9.91-5.19,2.41-12.46,16.98-13.78,18.95-1.32,1.97-20.77,15.46-13.03,22.93,7.74,7.47,4.5,26.34,24.73,20.63,20.23-5.71,18.38-38.64,49.95-35.16,31.58,3.48,55.88,7.45,52.65-3.23-3.23-10.68-17.31-13.7-35-14.21Z"/>
          <path class="cls-24" d="M1509.34,461.63c-23.38-.67-44.46-9.08-48.28-7.31-3.82,1.77-9.18,12.52-10.16,13.97s-15.31,11.4-9.6,16.9c5.71,5.5,3.31,19.41,18.22,15.2,14.91-4.21,13.55-28.47,36.82-25.91,23.27,2.56,41.18,5.49,38.8-2.38-2.38-7.87-12.75-10.1-25.8-10.47Z"/>
        </g>
      </g>
      <g>
        <path class="cls-17" d="M1003.14,401.75s-158.04,52.2-217.05-7.5c-17.5-17.72-26.14-33.92-29.55-48.04-8.11-33.44,13.04-55.03,14.48-56.58,2.03-2.2,136.63,60.18,218.04,25.65l5.06,31.05,9.03,55.43Z"/>
        <path class="cls-15" d="M1003.14,401.75s-158.04,52.2-217.05-7.5c-17.5-17.72-26.14-33.92-29.55-48.04,10.22-5.17,24.21-3.12,41.83,10.72,55.28,43.44,151.03,9.34,195.74-10.61l9.03,55.43Z"/>
        <path class="cls-17" d="M1072.55,373.64c-4.96,2.12-9.65,3.74-14.08,4.95,0,0-.01.01-.06.03-26.78,7.37-43.26-.03-43.25-1.59,0-1.2-8.33-25.14-13.65-41.79-2.78-8.73-4.75-15.47-4.24-15.88,1.46-1.18,51.08-36.49,64.53-27.37,13.21,8.99-13.37,18.68-14.3,19.02,14.67.12,50.07-8.52,66.46,4.25,16.42,12.79-20.69,11.9-29.92,16.96,0,0,23.5,26.43-11.5,41.43Z"/>
        <path class="cls-15" d="M1058.47,378.59s-.01.01-.06.03c-26.78,7.37-43.26-.03-43.25-1.59,0-1.2-8.33-25.14-13.65-41.79,15.56-4.82,32.78-8.27,39.28-18.83l43.25,15.8s-38.34-4.33-44.04,16.46c-5.69,20.77,18.47,29.93,18.47,29.93Z"/>
        <path class="cls-27" d="M996.1,420.51c-4.43,2.01-9.22-2.4-13.92-10.29-11.86-19.87-23.22-61.81-27.26-78.73-5.08-21.34,10.29-26.22,25.32-27.04,1.62-.09,3.24-.13,4.83-.14,16.32-.1,21.59,17.49,24.23,36,0,0,13.08,25.95,18.49,41.47,5.41,15.52-16.1,31.65-31.7,38.72Z"/>
        <path class="cls-14" d="M996.1,420.51c-4.43,2.01-9.22-2.4-13.92-10.29,9.38-9.84,18.1-21.86,20.95-33.53,5.51-22.58-16.33-61.3-22.89-72.23,1.62-.09,3.24-.13,4.83-.14,16.32-.1,21.59,17.49,24.23,36,0,0,13.08,25.95,18.49,41.47,5.41,15.52-16.1,31.65-31.7,38.72Z"/>
        <path class="cls-17" d="M880.79,661.48c-35.13,28.26-294.16,51.96-310.75,22.08-5.32-9.6-10.7-26.06-15.55-46.12-10.3-42.5-18.27-101.18-18.31-144.96-.09-64.43,54.26-172.33,142.79-188.03,8.18-1.45,39.7-7.11,77.32,8.73,32.41,13.62,69.34,43.24,99.75,105.23,65.68,133.91,59.91,214.8,24.76,243.07Z"/>
        <path class="cls-15" d="M879,658.98c-35.13,28.26-294.16,51.96-310.75,22.08-5.32-9.6-10.7-26.06-15.55-46.12,218.1-78.43,207.16-269.21,201.8-324.26,32.41,13.62,69.34,43.24,99.75,105.23,65.68,133.91,59.91,214.8,24.76,243.07Z"/>
        <path class="cls-27" d="M914.09,643.62c-7.74,10.81-96.11,50.79-147.85,45.81-22.18-2.14-23.42-27.36-17.58-55.48,7.76-37.48,28.09-80.13,28.09-80.13,0,0,10.94,81.53,39.81,76.93,23.11-3.68,69.16-31.48,86.63-42.45,4.37-2.73,6.95-4.42,6.95-4.42,0,0,11.69,48.93,3.95,59.74Z"/>
        <path class="cls-27" d="M794.79,641.17c6.46,61.35-32.71,59.59-102.84,70.14-70.12,10.57-130.58,1.61-140.09-14.43-1.75-2.94-2.61-6.01-2.82-9.05-.97-13.47,10.47-26.4,10.47-26.4,0,0,151.81,19.56,179.1-21.35,27.29-40.93-30.78-203.31-30.78-203.31l26.32-35.87s8.74,28.86,19.62,67.38c16.2,57.37,37.15,136.18,41.02,172.88Z"/>
        <path class="cls-14" d="M794.79,641.17c6.46,61.35-32.71,59.59-102.84,70.14-70.12,10.57-130.58,1.61-140.09-14.43-1.75-2.94-2.61-6.01-2.82-9.05,39.88,23.89,164,15.3,217.6-.69,57.96-17.28-14.6-209.65-14.6-209.65.05-3.23.65-6.31,1.73-9.21,16.2,57.37,37.15,136.18,41.02,172.88Z"/>
        <path class="cls-32" d="M750.82,540.21c116.56-25.29,138.38-53.05,138.38-53.05,6.63,10.69,11.81,26.63,17.13,48.53,0,0-52.56,34.22-144.72,54.21-92.17,20-215.64,20.77-215.64,20.77-4.16-12.84-6.7-25.95-6.03-39.56,0,0,94.33-5.61,210.89-30.9Z"/>
        <path class="cls-18" d="M792.4,530.08c-1.56-6.19-7.78-10.06-14.06-8.7l-60.34,13.09c-6.44,1.4-10.53,7.75-9.14,14.18l11.06,50.97c1.4,6.44,7.75,10.53,14.19,9.13l60.34-13.09c6.43-1.39,10.51-7.74,9.12-14.19l-11.06-50.97c-.03-.15-.06-.28-.11-.42ZM782.99,585.13c-.42.18-.87.33-1.35.43l-40.06,8.69c-.92.2-1.83.23-2.72.11-3.34-.39-6.21-2.87-6.96-6.33l-7.33-33.79c-.95-4.38,1.82-8.72,6.22-9.67l40.17-8.72c.38-.08.76-.13,1.14-.13,3.92-.25,7.56,2.4,8.42,6.38l7.33,33.79c.75,3.47-.83,6.89-3.69,8.64-.01.02-.03.02-.05.03-.3.19-.61.35-.94.49-.06.03-.14.06-.21.08Z"/>
        <rect class="cls-18" x="762.61" y="555.69" width="27.8" height="9.94" rx="4.97" ry="4.97" transform="translate(-101.21 177.37) rotate(-12.24)"/>
      </g>
      <g>
        <g>
          <path class="cls-37" d="M1200.66,937.94H133.78c-55.16,0-100.04-44.88-100.04-100.04,0-11.05,8.95-20,20-20s20,8.95,20,20c0,33.11,26.93,60.04,60.04,60.04h1066.88c33.11,0,60.04-26.93,60.04-60.04,0-11.05,8.95-20,20-20s20,8.95,20,20c0,55.16-44.88,100.04-100.04,100.04Z"/>
          <path class="cls-37" d="M316.89,937.94c-11.05,0-20-8.95-20-20v-76.77c0-11.05,8.95-20,20-20s20,8.95,20,20v76.77c0,11.05-8.95,20-20,20Z"/>
          <path class="cls-37" d="M903.87,937.94c-11.05,0-20-8.95-20-20v-76.77c0-11.05,8.95-20,20-20s20,8.95,20,20v76.77c0,11.05-8.95,20-20,20Z"/>
        </g>
        <g>
          <path class="cls-17" d="M1171.24,526.14c0,5.41-.68,10.63-1.93,15.58-6.95,27.69-31.45,47.25-52.79,47.25-30.44,0-47.97-13.04-47.97-13.04v46.45c0,23.07,9.56,45,26.04,61.15,14.23,13.93,28.99,36.01,28.99,67.66,0,61.11-58.05,88.52-83.65,88.52H197.73c-65.35,0-106.98-36.47-106.98-120.25s88.92-123.14,95.14-157.15c8.21-36.02,5.53-59.07-18.99-85.8,0,0-32.71,38-76.15,38S0,498.35,0,448.27c0-10.28.65-23.26,3.2-37.42,9.86-54.78,48.25-126.98,187.93-126.98,271.4,0,357.75,305.8,357.75,305.8h410.74s18.7-129.53,135.14-129.53c47.01,0,76.48,30.36,76.48,66Z"/>
          <path class="cls-8" d="M1171.24,526.14c0,5.41-.68,10.63-1.93,15.58-12.86-32.73-63.05-42.67-101.92-29.31-54.17,18.62-65.85,148.9-65.85,148.9h-501.88s-25.4-199.17-190.47-292.24c-165.08-93.08-268.26,27.9-272.16,25.67l-33.82,16.11c9.86-54.78,48.25-126.98,187.93-126.98,271.4,0,357.75,305.8,357.75,305.8h410.74s18.7-129.53,135.14-129.53c47.01,0,76.48,30.36,76.48,66Z"/>
          <path class="cls-37" d="M1171.24,526.14c0,35.65-29.57,62.83-54.72,62.83-30.44,0-47.97-13.04-47.97-13.04-16.5-18.17-4.46-42.1,16.5-54.33,20.96-12.23,24.46,31.88,38.87,31.88s25.77-16.15,25.77-25.76,2.62-39.31-46.3-40.18c-115.3,0-119.66,140.68-122.28,140.68h-464.94c-80.43-249.85-214.11-312.75-334.58-312.75S29.48,391.53,29.48,431.66s34.7,57.4,53.09,57.4,42.87,4.56,43.89-22.51c1.02-27.07-50.96-11.2-50.96-45,0-18.68,4.02-39.67,52.19-28.62,80.66,18.51,39.21,83.56,39.21,83.56,0,0-32.71,38-76.15,38S0,498.35,0,448.27s15.35-164.4,191.13-164.4c271.4,0,357.75,305.8,357.75,305.8h410.74s18.7-129.53,135.14-129.53c47.01,0,76.48,30.36,76.48,66Z"/>
          <path class="cls-37" d="M1009.7,803.6H233.17c-94.68,0-104.9-68.55-104.9-98.03,0-22,8.6-45.42,23.01-62.65,13.49-16.14,39.12-35.37,84.64-35.37.06,0,.12,0,.18,0,60.61,2.18,73.34,37.99,73.34,67.65,0,34.57-22.98,69.45-74.3,69.45-54.68,0-54.68-38.49-54.68-52.97,0-12.52,3.82-24.96,10.47-34.13,6.14-8.46,17.86-18.53,38.87-18.53,32.63,0,49.17,12.79,49.17,38.01,0,9.91-3.25,17.45-9.66,22.41-13.11,10.16-34.52,4.79-35.42,4.55-2.67-.69-4.28-3.42-3.59-6.09.69-2.67,3.41-4.28,6.09-3.59,4.88,1.24,19.17,3.15,26.81-2.79,3.88-3.01,5.76-7.76,5.76-14.49,0-24.83-20.93-28.01-39.17-28.01-38.24,0-39.34,38.29-39.34,42.66,0,9.47.77,20.26,6.46,28.5,6.73,9.74,19.23,14.47,38.22,14.47,20.35,0,37.14-6.24,48.55-18.04,10.16-10.51,15.76-25.22,15.76-41.41,0-36.7-21.4-56.1-63.6-57.65-32.93.02-59.52,11.01-76.88,31.79-12.95,15.49-20.68,36.52-20.68,56.24,0,15.6,2.9,38.06,16.7,56.44,15.74,20.96,42.05,31.58,78.2,31.58h776.53c48.09,0,75.93-7.71,75.93-47.11,0-30.76-13.54-45.72-41.4-45.72-19.22,0-29.02,6.72-31.77,21.8-1.51,8.25.05,15.43,4.49,20.76,4.67,5.6,12.45,8.95,20.8,8.95,17.17,0,17.66-11.98,17.66-13.34,0-4.81-4.84-14.42-11.19-14.42-2.76,0-5-2.24-5-5s2.24-5,5-5c12.74,0,21.19,14.7,21.19,24.42,0,11.24-8.66,23.34-27.66,23.34-11.28,0-21.93-4.69-28.48-12.54-4.47-5.36-9.25-14.73-6.65-28.96,3.63-19.91,17.63-30,41.61-30,33.15,0,51.4,19.79,51.4,55.72,0,23.56-9.47,39.9-28.14,48.57-16.17,7.5-37.33,8.54-57.79,8.54Z"/>
        </g>
      </g>
      <g>
        <g>
          <path class="cls-29" d="M729.15,309.82c-42.71,16.87-75.58,10.75-98.02-10.44-13.97-13.18-23.89-32.17-29.63-55.1-14.95-59.77-2.21-92.25,46.5-110.36,32.13-11.96,63.92-8.33,84.46,15.51,5.62,6.5,10.39,14.52,14.11,24.13,17.31,44.82,51.9,108.9-17.42,136.26Z"/>
          <path class="cls-11" d="M729.15,309.82c-42.71,16.87-75.58,10.75-98.02-10.44,97.6-57.99,108.72-113.82,101.33-149.96,5.62,6.5,10.39,14.52,14.11,24.13,17.31,44.82,51.9,108.9-17.42,136.26Z"/>
          <path class="cls-27" d="M756.38,483.43s2.01-72.01-27.88-57.2c-28.51,14.11-59.25.33-80.07-24.98-3.19-3.88-6.15-8.03-8.84-12.38-.99-1.61-1.95-3.23-2.86-4.89-1.8-3.28-46.3-9.06-42.69-48.84,3.62-39.8,8.92-52.06-4.73-82.31,0,0-7.92-29.82,7.04-36.35,14.97-6.53,14.65,60.07,33.91,66.57,19.25,6.51,15.94-20.09,43.19-30.16,27.28-10.06,52.57-24,61.33-21.81,8.74,2.21,16.55,16.39,23.63,3.44,7.09-12.97-17.52-57.4-15.66-64.63,1.43-5.55,5.42-6.6,9.29-1.9,0,0,0,.02.02.03,1.16,1.41,2.3,3.33,3.36,5.81,4.63,10.76,12.94,34.45,36.59,57.97,4.05,4.02,8.27,8.58,12.47,13.47,20.46,23.73,40.39,55.18,34.69,69.83,0,0,37.16,124.68-82.78,168.33Z"/>
          <path class="cls-14" d="M704.76,255.58s22.17,7.39,41.16-1.89c.51,3.45-59.99,29.19-69.66,27.33-9.16-1.76,22.81-14.75,21.99-24.76-.82-10.01,6.51-.67,6.51-.67Z"/>
          <path class="cls-14" d="M756.38,483.43s2.01-72.01-27.88-57.2c-28.51,14.11-59.25.33-80.07-24.98,11.51,2.31,23.58,1.73,23.58,1.73-37.76-9.47-25.01-36.99-25.01-36.99,5.35,30.1,101.67,13.05,124.43-48.53,22.5-60.94-18.48-147.56-19.37-149.44,1.16,1.41,2.3,3.33,3.36,5.81,4.63,10.76,12.94,34.45,36.59,57.97,4.05,4.02,8.27,8.58,12.47,13.47,20.46,23.73,40.39,55.18,34.69,69.83,0,0,37.16,124.68-82.78,168.33Z"/>
          <path class="cls-33" d="M728.96,261.85c-7.29,16.05-11.26,27.92-45.36,16.91,4.06.34,7.18-1.37,9.58-3.99,5.95-6.44,7.46-18.32,7.46-18.32,0,0,9.42,7.79,20.06,7.48,2.72-.06,5.52-.67,8.27-2.08Z"/>
          <path class="cls-10" d="M700.57,257.52c-8.95,3.45-18,2.82-23.21-1.03-1.73-1.27-3.04-2.9-3.78-4.84-3.03-7.85,4.15-17.91,16.03-22.51,4.73-1.82,9.47-2.49,13.68-2.16,6.38.48,11.5,3.32,13.32,8.05,3.03,7.83-4.15,17.91-16.03,22.49Z"/>
          <path class="cls-27" d="M710.67,172.34c-10.09,2.13-23.91,9.47-18.33,17.22,5.58,7.75,16.85-4.9,21.64-5.89,4.79-.99,22.97,7.63,22.35,2.69-.61-4.93-15.56-16.15-25.66-14.02Z"/>
          <path class="cls-27" d="M630.36,210.07c6.92-7.64,20.22-15.89,24.11-7.17,3.89,8.72-12.72,12.09-15.99,15.73-3.26,3.64-4.98,23.68-8.93,20.67-3.95-3.01-6.12-21.58.81-29.23Z"/>
          <g>
            <path class="cls-29" d="M601,262.1c2.09,7.37,4.28,16.63,5.7,22.86.94,4.2,1.55,7.03,1.55,7.03,0,0-13.32,19.41-27.48-10.31-14.15-29.72,15.21-31.85,15.89-31.09,1.14,1.25,2.71,5.82,4.34,11.51Z"/>
            <path class="cls-10" d="M601,262.1c2.09,7.37,4.28,16.63,5.7,22.86-5.73,1.06-17.45-6.43-14.44-16.06,2.47-7.88,6.44-7.54,8.73-6.8Z"/>
          </g>
          <g>
            <path class="cls-29" d="M761.9,206.23c2.56,7.22,6.13,16.04,8.58,21.94,1.66,3.96,2.81,6.63,2.81,6.63,0,0,22.09,8.12,16.44-24.31-5.67-32.43-30.83-17.17-30.96-16.16-.21,1.68,1.16,6.32,3.13,11.9Z"/>
            <path class="cls-10" d="M761.9,206.23c2.56,7.22,6.13,16.04,8.58,21.94,5.28-2.45,10.5-15.34,2.47-21.46-6.57-5-9.61-2.43-11.06-.49Z"/>
          </g>
          <path class="cls-9" d="M700.57,257.52c-8.95,3.45-18,2.82-23.21-1.03,21.28,5.51,40.83-17.53,25.92-29.5,6.38.48,11.5,3.32,13.32,8.05,3.03,7.83-4.15,17.91-16.03,22.49Z"/>
          <path class="cls-19" d="M720.7,263.93c-6.08,17.67-26.91,10.36-27.5,10.84h-.02c5.95-6.44,7.46-18.32,7.46-18.32,0,0,9.42,7.79,20.06,7.48Z"/>
          <path class="cls-20" d="M722.81,267.25c2.38.46-3.55,12.97-11.33,13.14-7.78.17-16.64.81-16.12-1.87.51-2.68,8.42.16,16.41-2.42,7.98-2.58,7.6-9.52,11.05-8.85Z"/>
          <ellipse cx="720.8" cy="204.35" rx="5.28" ry="7.32" transform="translate(-21.2 308) rotate(-23.78)"/>
          <ellipse cx="657.55" cy="230.11" rx="5.28" ry="7.32" transform="translate(-36.96 284.68) rotate(-23.78)"/>
        </g>
        <ellipse class="cls-30" cx="640.43" cy="150.65" rx="24.56" ry="8.25" transform="translate(-3.2 286.97) rotate(-25.2)"/>
        <path class="cls-17" d="M746.28,139.7s-64.31-128.86-184.61-31.76c-76.69,61.9-76.83,67.32-156.25,87.09,0,0,40.92,46.3,140.67-7.85,15.66-8.5,18.79,16.64,28.08,30.05l172.12-77.53Z"/>
        <path class="cls-24" d="M739.66,169.35c-54.66,6.95-97.87,26.03-133.38,62.41-10.03,10.29-27.06,6.47-33.08-3.94-2.02-3.48-2.8-7.69-1.69-12.35,7.99-33.48,103.18-80.13,163.59-86.12,10.32-1.02,19.95,5.77,22.01,15.93.02.14.05.28.07.41,2.13,11.4-6.02,22.2-17.53,23.66Z"/>
        <path class="cls-24" d="M428.87,188.04c1.01,9.72-6.06,18.42-15.78,19.42-6.44.67-12.45-2.22-16.04-7.08-1.82-2.46-3.03-5.44-3.37-8.71-1.01-9.72,6.05-18.41,15.77-19.41.44-.05.86-.07,1.29-.08,9.19-.29,17.17,6.57,18.13,15.85Z"/>
      </g>
      <path class="cls-21" d="M1586.16,691.84c-2.95,0-5.87-1.3-7.85-3.79-33.66-42.49-48.32-94.79-42.39-151.25,2.75-26.23,9.28-47.56,14.01-60.31-32.9-3.71-123.36-15.18-239.67-40.38-145.16-31.45-378.49-44.16-380.83-44.29-5.52-.29-9.75-5-9.45-10.52.29-5.52,4.99-9.76,10.52-9.45,2.36.13,237.27,12.93,384,44.71,145.27,31.47,249.67,41.34,250.71,41.43,3.27.3,6.19,2.2,7.8,5.06s1.71,6.34.26,9.29c-.13.27-13.54,28.18-17.52,67.23-5.25,51.6,7.62,97.38,38.25,136.05,3.43,4.33,2.7,10.62-1.63,14.05-1.84,1.46-4.03,2.16-6.2,2.16Z"/>
      <g>
        <path class="cls-4" d="M1669.62,472.46c-.55.76-1.1,12.99-2.57,29.77-.27,3.19-.58,6.56-.94,10.04-.51,5.08-1.12,10.4-1.84,15.82-1.06,8.13-2.37,16.51-3.98,24.59-1.34,6.73-2.88,13.26-4.68,19.32-2.32,7.76-5.03,14.71-8.24,20.25-4.44,7.64-9.82,12.61-16.34,13.35-25.07,2.83-44.87-19.61-44.87-19.61,0,0,1.2-3.74,3.16-9.88,1.42-4.44,3.24-10.14,5.3-16.59,1.42-4.51,2.99-9.37,4.58-14.45,1.6-5.04,3.26-10.28,4.91-15.55,2.18-6.92,4.38-13.88,6.43-20.51,1.12-3.59,2.2-7.09,3.23-10.42,5.17-16.77,8.94-29.55,8.84-30.68-.36-3.5,47.02,4.55,47.02,4.55Z"/>
        <path class="cls-12" d="M1655.6,572c-2.32,7.76-5.03,14.71-8.24,20.25-20.11-.51-39.42-6.25-58.05-16.15,1.42-4.44,3.24-10.14,5.3-16.59,13.4,4.65,41.56,10.04,60.99,12.49Z"/>
        <path class="cls-12" d="M1664.26,528.09c-1.06,8.13-2.37,16.51-3.98,24.59-20.82-.79-41.18-3.28-61.09-7.62,1.6-5.04,3.26-10.28,4.91-15.55,19.65,2.59,39.71,2.02,60.16-1.42Z"/>
        <path class="cls-12" d="M1667.04,502.23c-.27,3.19-.58,6.56-.94,10.04-18.41,1.73-36.94.55-55.56-3.26,1.12-3.59,2.2-7.09,3.23-10.42,14.09,1.53,42.68,3.47,53.28,3.64Z"/>
      </g>
      <g>
        <path class="cls-21" d="M1757.02,465.55c.91,5.12-2.65,9.96-7.81,10.6-.06,0-.12.02-.18.02-3.3.41-7.33.91-11.94,1.44-4.72.54-10.06,1.13-15.81,1.71-4.79.5-9.89.99-15.16,1.47-4.84.43-9.84.85-14.92,1.24-1.17.08-2.35.17-3.53.26-3.95.26-7.92.52-11.89.74-2.11.11-4.23.23-6.34.33-7.43.36-14.79.58-21.83.62-4.45.02-8.77-.02-12.91-.16-5.57-.17-10.8-.52-15.53-1.04-6.29-.7-11.72-1.72-15.94-3.18-5.13-1.75-8.47-4.12-9.38-7.26-4.76-16.57,5.16-46.95,5.16-46.95l9.03-.45,8.77-.44,11.74-.6,13.28-.67,21.41-1.09,6.31-.32,7.22-.36,3.74-.19,16.37-.84,12-.61,18.63-.94s.1-.04.31-.11c1.47-.48,7.8-2.44,12.84-1.86,2.13.24,4.03.94,5.23,2.39,3.25,3.91,8.5,31.44,11.14,46.25Z"/>
        <path class="cls-40" d="M1619.18,482.8c-6.29-.7-11.72-1.72-15.94-3.18.34-19.24,1.83-37.57,4.82-54.66l8.77-.44c-2.15,19.68-1.32,39.09,2.35,58.29Z"/>
        <path class="cls-40" d="M1647.62,484c-4.45.02-8.77-.02-12.91-.16-2.47-17.17-5.18-43.56-6.15-59.93l13.28-.67c-.88,19.83,1.23,40.09,5.78,60.76Z"/>
        <path class="cls-40" d="M1663.24,422.15c2.82,14.61,5.3,41.78,6.2,61.22,2.11-.1,4.23-.21,6.34-.33,3.97-.22,7.94-.48,11.89-.74-.48-21.6-3.71-42.08-10.91-60.84l-13.52.68Z"/>
        <path class="cls-40" d="M1721.28,479.33c-4.79.5-9.89.99-15.16,1.47-2-21.86-4.93-42.23-9.25-60.36l12-.61c7.25,21.46,12.13,41.7,12.41,59.5Z"/>
        <path class="cls-40" d="M1749.03,476.18c-3.3.41-7.33.91-11.94,1.44-.66-19.71-3.78-39.33-9.28-58.84,1.47-.48,7.8-2.44,12.84-1.86,3.8,21.33,6.79,41.38,8.38,59.26Z"/>
      </g>
      <g>
        <path class="cls-41" d="M1678.76,221.04s-10.15-25.36-6.09-43.7c4.05-18.33,22.16-23.48,22.74-31.98.58-8.5-7.15-12.97-12.76-13.27-5.61-.3-20.13,22.9-33.62,20.3-13.49-2.6-32.33-13.26-26.72-33.44,5.61-20.18,28.02-33.94,28.76-42.66.74-8.72-10.67-17.48-17.27-15.68s-28.82,37.69-28.82,37.69c0,0-13.27,14.87-10.28-14.62,2.98-29.49,35.75-54.23,34.64-70.94-1.11-16.71-15.71-12.74-25.15-8.07-9.44,4.67-24.58,50.85-24.58,50.85-1.97,8.56-11,6.48-9.58-4.95,0,0,9.43-39.03,5.13-46.26-4.29-7.24-18.34-7.13-25.27,14.02-22.41,68.43,57.07,141.6,88.77,163.67,31.7,22.07,24.91,56.01,24.91,56.01l14.48-14.24"/>
        <path class="cls-6" d="M1571.94,165.35c-12.3,36.28,28.18,91.51,78.96,85.07-1.57-53.1-32.83-76.52-78.96-85.07Z"/>
        <path class="cls-25" d="M1586.01,181.44c-7.85,23.17,17.99,58.42,50.41,54.31-1.01-33.9-20.96-48.85-50.41-54.31Z"/>
        <path class="cls-41" d="M1752.3,239.82s21.07-17.39,26.3-35.42c5.24-18.03-8.19-31.24-4.62-38.97,3.57-7.73,12.5-7.95,17.56-5.52s6.68,29.75,19.76,33.94c13.08,4.19,34.73,3.87,39.48-16.53,4.75-20.4-8.3-43.22-4.78-51.23,3.53-8.01,17.75-10.22,22.67-5.47,4.93,4.75,7.21,46.9,7.21,46.9,0,0,4.51,19.41,16.03-7.89,11.53-27.31-5.36-64.73,3.62-78.86,8.99-14.14,19.9-3.64,25.94,4.98,6.04,8.62-2.82,56.41-2.82,56.41-2.37,8.46,6.54,10.96,10.78.25,0,0,10.44-38.77,17.68-43.06,7.24-4.29,19.52,2.54,15.45,24.42-13.16,70.79-117.98,96.88-156.39,101.05-38.41,4.16-48.72,37.2-48.72,37.2l-5.88-19.44"/>
        <path class="cls-6" d="M1661.98,448.13c-3.35.08-100.94-29.59-64.9-124.14.66-1.74,1.33-3.47,2.01-5.17,45.04-113.36,107-114.99,124.17-110.61,17.32,4.44,71.65,36.1,55.51,159.66-.1.81-.22,1.63-.32,2.45-13.69,100.13-113.35,79.53-116.47,77.81Z"/>
        <path class="cls-34" d="M1661.98,448.13c-3.35.08-100.94-29.59-64.9-124.14.66-1.74,1.33-3.47,2.01-5.17,27.7-2.35,58.41.13,89.74,8.13,34.7,8.86,65.46,23.31,89.95,40.92-.1.81-.22,1.63-.32,2.45-13.69,100.13-113.35,79.53-116.47,77.81Z"/>
        <path class="cls-6" d="M1872.75,242.18c-6.61,37.74-68.62,66.79-110.09,36.78,26.85-45.84,65.5-51.4,110.09-36.78Z"/>
        <path class="cls-25" d="M1852.68,249.56c-4.22,24.09-43.81,42.64-70.28,23.48,17.14-29.26,41.82-32.82,70.28-23.48Z"/>
        <circle class="cls-35" cx="1744.14" cy="324.89" r="10.19"/>
        <circle class="cls-35" cx="1650.49" cy="300.97" r="10.19"/>
        <ellipse class="cls-12" cx="1683.95" cy="348.72" rx="27.79" ry="44.38" transform="translate(929.32 1893.98) rotate(-75.67)"/>
        <path class="cls-35" d="M1677.3,409.03c-9.48,0-18.63-4.74-27.34-14.21-1.12-1.22-1.04-3.12.18-4.24,1.22-1.12,3.12-1.04,4.24.18,11.28,12.26,22.73,15.26,35.01,9.19,1.49-.73,3.29-.13,4.02,1.36.73,1.48.13,3.28-1.36,4.02-4.99,2.47-9.91,3.7-14.75,3.7Z"/>
      </g>
      <path class="cls-21" d="M1749.05,602.09c-.53,0-1.08-.04-1.62-.13-42.2-6.87-87.2-30.52-133.76-70.28-30.35-25.92-51-50.02-56.01-56.04-74.92-44.96-156.65-79.59-242.97-102.94-82.53-22.32-171.64-34.97-265-37.63-5.4,14.49-18.95,50.12-34.84,86.44-38.45,87.87-56.95,104.03-67.53,108.53-6.48,2.76-11.68,1.64-14.89.21-16.58-7.36-25.46-30.69-27.17-71.32-1.16-27.51,1.44-52.89,1.56-53.96.57-5.49,5.49-9.48,10.98-8.91,5.49.57,9.48,5.49,8.91,10.98-.03.25-2.57,25.18-1.46,51.24.64,14.89,2.32,27.17,5,36.48,2.5,8.69,5.84,14.58,9.48,16.77,1.94-.91,9-5.61,22.69-28.87,9.58-16.26,20.6-38.52,32.78-66.16,20.88-47.39,38.02-94.56,38.19-95.03,1.46-4.04,5.37-6.67,9.63-6.59,97.56,2.24,190.72,15.2,276.89,38.5,88.67,23.98,172.63,59.64,249.54,105.99,1,.6,1.89,1.38,2.62,2.28.85,1.05,86.23,105.5,178.58,120.55,5.45.89,9.15,6.03,8.26,11.48-.8,4.91-5.04,8.39-9.86,8.39Z"/>
      <g>
        <path class="cls-17" d="M863.11,479.45s-154.38,62.2-217.09,6.38c-18.6-16.57-28.25-32.18-32.56-46.05-10.23-32.85,9.5-55.75,10.83-57.39,1.88-2.33,140.19,51.32,219.23,11.66l7.03,30.66,12.55,54.74Z"/>
        <path class="cls-15" d="M863.11,479.45s-154.38,62.2-217.09,6.38c-18.6-16.57-28.25-32.18-32.56-46.05,9.87-5.81,23.96-4.66,42.43,8.02,57.94,39.81,151.32-.34,194.66-23.1l12.55,54.74Z"/>
        <path class="cls-15" d="M930.57,446.96c-4.81,2.43-9.39,4.35-13.73,5.84,0,0-.01.01-.06.03-26.25,9.07-43.17,2.74-43.26,1.18-.08-1.2-9.92-24.56-16.29-40.84-3.33-8.54-5.73-15.14-5.25-15.58,1.38-1.27,48.65-39.68,62.65-31.44,13.76,8.12-12.15,19.49-13.05,19.9,14.65-.82,49.43-11.71,66.59,0,17.2,11.71-19.89,13.19-28.78,18.83,0,0,25.14,24.88-8.83,42.08Z"/>
        <path class="cls-27" d="M857.28,498.62c-4.3,2.29-9.35-1.81-14.55-9.38-13.11-19.07-27.13-60.19-32.24-76.83-6.43-20.97,8.59-26.82,23.54-28.6,1.62-.19,3.23-.34,4.81-.45,16.28-1.14,22.66,16.07,26.49,34.38,0,0,14.71,25.06,21.1,40.21s-14.04,32.62-29.16,40.67Z"/>
        <path class="cls-14" d="M857.28,498.62c-4.3,2.29-9.35-1.81-14.55-9.38,8.73-10.42,16.67-22.98,18.77-34.8,4.06-22.88-20.21-60.13-27.46-70.62,1.62-.19,3.23-.34,4.81-.45,16.28-1.14,22.66,16.07,26.49,34.38,0,0,14.71,25.06,21.1,40.21s-14.04,32.62-29.16,40.67Z"/>
      </g>
    </g>
  </g>
</svg>