<?xml version="1.0" encoding="UTF-8"?>
<svg id="Layer_2" data-name="Layer 2" xmlns="http://www.w3.org/2000/svg" viewBox="0 0 1017.33 1227.61">
  <defs>
    <style>
      .cls-1 {
        fill: #ebaf4b;
      }

      .cls-2 {
        fill: #ff9b0f;
      }

      .cls-3 {
        fill: #e2403e;
      }

      .cls-4 {
        fill: #c92c2c;
      }

      .cls-5 {
        fill: #e87866;
      }

      .cls-6 {
        fill: #f39383;
      }

      .cls-7 {
        fill: #ffa480;
      }

      .cls-8 {
        fill: #edf1ff;
      }

      .cls-9 {
        fill: #cc3839;
      }

      .cls-10 {
        fill: #e3a949;
      }

      .cls-11 {
        fill: #e23e3f;
      }

      .cls-12 {
        fill: #f7b84f;
      }

      .cls-13 {
        fill: #b0595b;
      }

      .cls-14 {
        fill: #f09ea0;
      }

      .cls-15 {
        fill: #ffc30f;
      }

      .cls-16 {
        fill: #fffefa;
      }

      .cls-17 {
        fill: #25470c;
      }

      .cls-18 {
        fill: #fbb99f;
      }

      .cls-19 {
        fill: #fbccba;
      }

      .cls-20 {
        fill: #45191a;
      }

      .cls-21 {
        fill: #d54939;
      }

      .cls-22 {
        fill: #7d2d30;
      }

      .cls-23 {
        fill: #662527;
      }

      .cls-24 {
        fill: #376912;
      }

      .cls-25 {
        fill: #f0797b;
      }

      .cls-26 {
        fill: #5c2f0e;
      }

      .cls-27 {
        fill: #ac3c2e;
      }

      .cls-28 {
        fill: #801c1c;
      }

      .cls-29 {
        fill: #944f11;
      }

      .cls-30 {
        fill: #de760d;
      }
    </style>
  </defs>
  <g id="Layer_1-2" data-name="Layer 1">
    <g id="Christmas_Tree_with_Santa_Claus" data-name="Christmas Tree with Santa Claus">
      <path class="cls-10" d="M101.24,636.18S-45.58,724.73,14.4,897.15c59.98,172.42,418.09,208.14,385.06,24.1-33.03-184.04-198.9-242.12-209.38-238.15-10.48,3.96-88.83-46.92-88.83-46.92Z"/>
      <g>
        <g>
          <g>
            <path class="cls-29" d="M679.09,1199.12c-14.28,4.26-28.12,7.01-41.36,7.71-16.31.88-31.71-1.36-45.9-7.71l28.72-224.88,28.68,21.38,18.41,13.72,11.46,189.77Z"/>
            <path class="cls-26" d="M679.09,1199.12c-14.28,4.26-28.12,7.01-41.36,7.71l11.49-211.21,18.41,13.72,11.46,189.77Z"/>
          </g>
          <path class="cls-24" d="M948.45,1012.35c-45,0-100.93-35.7-127.83-35.7s51.68,74.11-15.48,74.11c-41.9,0-75.08-53.94-98.35-53.94s-3.11,53.94-67.26,53.94-41.02-53.94-64.3-53.94-59.42,53.94-101.32,53.94c-67.16,0,15.48-74.11-11.42-74.11s-84.77,35.7-129.78,35.7-69.77-31.3-65.82-52.25c6.5-34.37,63.03-59.13,105.72-87.49,21.63-14.35,39.7-29.63,45.93-47.55-53.1,31.04-80.72,20-77.91-7.24,3.87-37.62,44.84-73.3,78.67-106.92,20-19.86,37.5-39.02,43.36-57.4.03-.1.05-.17.08-.25.09-.29.14-.45.14-.45h0c-1.32.61-134.32,61.22-116.94-9.31,12.89-52.31,70.51-70.46,119.49-103.85,17.39-11.84,33.69-25.61,46.51-43.5-4.67,2.62-11.3,4.93-18.83,6.67-35.54,8.26-90.85,3.93-51.19-39.87,22.65-25.01,50.28-39.76,75.04-59.32,15.82-12.5,30.48-26.96,41.92-47.33-.02,0-.03.02-.06.03s-.06.04-.11.07c-.12.06-.29.17-.52.31-.07.05-.15.1-.24.14-8.92,5.17-77.57,43.68-68.46-6.17,7.65-41.87,50.2-52.12,77.77-78.19,4.45-4.2,8.5-8.81,11.95-14.03,2.39-3.61,4.49-7.51,6.24-11.78,0,0-32.07-18.79,5.39-53.67,37.46-34.88,68.88-66.89,74.56-85.76,4.65,18.86,34.3,50.88,69.85,85.76,35.55,34.88,2.45,53.67,2.45,53.67h0c2.54,7.17,6.14,13.31,10.46,18.77.44.55.87,1.09,1.33,1.63,25.38,30.26,72.75,38.95,78.47,83.6,6.75,52.75-68.18,6.55-69.69,5.62h-.02s.02.04.05.08c.09.19.19.37.29.56.05.1.11.22.17.35,17.96,34.71,46.29,52.14,73.45,72.34,13.07,9.71,25.88,20.08,37.14,33.3,44.6,52.44-43.77,48.31-70.87,33.74l-.97-.54c22.83,34.5,59.44,53.66,91.82,73.31h0c31.72,19.24,59.38,38.97,66.1,74.04,13.22,69.07-110.86,12.37-117.22,9.43-.09-.05-.17-.09-.25-.12,9.14,36.92,65.65,76.91,95.24,119.7,10.21,14.78,17.21,29.89,17.96,45.33,1.05,21.87-16.93,33.3-50.67,20.89-5.64-2.08-11.73-4.82-18.24-8.3-.05-.02-.09-.04-.09-.04,0,0,0,0-.03-.02-3-1.6-6.1-3.36-9.28-5.28,9.69,33.08,60.27,57.18,98.89,83.09,23.59,15.81,42.71,32.31,45.35,51.94,2.81,20.95-23.67,52.25-68.68,52.25Z"/>
          <path class="cls-17" d="M749.51,267.09c-10.75,2.65-22.52,5.72-34.89,7.26-29.94,3.73-41.47-11.2-58.54-14.18-17.08-2.98-31.12,19.4-63.12,16.42-8.86-.83-17.63-2.33-25.7-4.09,4.45-4.2,8.5-8.81,11.95-14.03,2.39-3.61,4.49-7.51,6.24-11.78,20.26,5.88,31.74-19.14,46.57-18.22,12.22.76,3.75,19.25,27.88,20.32s29.51-9.68,36.16-16.47c10.16-11.98,18.34,18.53,41.64,14.37h0c2.54,7.17,6.14,13.31,10.46,18.77.44.55.87,1.09,1.33,1.63Z"/>
          <path class="cls-17" d="M832.24,429.64c-6.9,5.45-22.57,7.67-57.01-3.1-25.63-12.12-45.92-39.05-65-39.49-19.08-.44,4.19,48.84-36.19,50.48-73.22,2.96-55.96-84.84-71.26-84.23-15.29.61-34.37,50.12-85.8,50.32,15.82-12.5,30.48-26.96,41.92-47.33h0s32.9-28.98,53.06-24.63c20.16,4.34-14.15,54.32,43.16,57.21,57.31,2.9,21.17-47.07,31.74-52.14,10.56-5.07,38.26,47.08,59.6,41.28,18.11-4.91,13.98-17.13,12.32-20.72,17.96,34.71,46.29,52.14,73.45,72.34Z"/>
          <path class="cls-17" d="M889.36,569.46c-16.09,5.04-88.76-55.49-99.47-46.52-10.7,8.97,14.11,98.63-32.89,109.47-108.51,19.81-87.94-103.49-94.65-103.86-6.72-.37-4.81,107.23-84.66,103.49-102.36,0-13.68-141.22-29-141.22-13.58,0-53.83,42.52-83.26,48.84,17.39-11.84,33.69-25.61,46.51-43.5-4.67,2.62-11.3,4.93-18.83,6.67,6.07-3.55,13.31-7.81,21.48-12.54,0,0,21.69-29.28,47.3-21.96,25.61,7.32-58.65,105.63,14.75,98.3,73.39-7.32,74.62-89.94,86.15-90.98,11.53-1.05.76,86.8,68.73,86.8s8.57-83.66,20.25-89.94l45.77,23.64c22.83,34.5,59.44,53.66,91.82,73.31Z"/>
          <path class="cls-17" d="M933.25,772.5c-9.1,12.39-25.26,21.92-52.93,6.83-52.5-28.62-58.2-76.13-63.12-74.61-4.91,1.52,9.87,69.21-19.96,78.25-76.18,23.09-78.73-99.26-92.99-89.82-14.26,9.44-18.05,114.2-78.84,110.24-60.79-3.96-25.38-95.93-41.57-93.79-16.2,2.13-85.5,86.49-138.29,68.52-30.74-10.47-36.49-38.26-26.21-67.21,20-19.86,37.5-39.02,43.36-57.4-2.45,8.34-23.67,86.95,56.46,52.43,83.25-35.86,97.63-59.27,98.06-59.99-.36,1.22-24.41,83.54,24.59,80.35,49.38-3.22,46.43-91.37,46.43-91.37,0,0,46.3,69.74,94.1,45.73,46.3-23.26,25.44-53.13,24.08-54.99,1.32,1.37,21.84,22.86,31.6,27.14,9.14,36.92,65.65,76.91,95.24,119.7Z"/>
          <path class="cls-17" d="M900.53,838.72c-5.64-2.08-11.73-4.82-18.24-8.3.85.37,7.93,3.5,18.24,8.3Z"/>
          <path class="cls-17" d="M372.62,872.62c-28.57,42.85-14.16,74.49,19.47,74.49,89.9,0,115.88-73.71,123.42-73.71s-5.44,95.2,64.31,95.2c69.74,0,62.7-87,74.01-87s58.06,82.29,136.39,78.51c78.33-3.78,20.01-111.21,44.52-111.21,21.72,0,86.39,52.55,137.05,59.27-38.62-25.91-89.2-50.01-98.89-83.09,3.18,1.92-21.7-16.71-59.66-16.71s24.33,109.11-61.43,109.11c-78.22,0-89.85-91.2-103.63-91.2s-13.79,111.22-82.3,100.85c-68.51-10.36-16.92-104.62-29.17-104.62s-52.41,89.54-107.96,87.65c-55.55-1.88,39.55-101.79,24.73-106.51-14.82-4.71-34.93,21.42-34.93,21.42l-45.93,47.55Z"/>
        </g>
        <g>
          <g>
            <g>
              <path class="cls-4" d="M777.83,302.01c-23.88-24.06-108.01,12.41-108.56,12.64h0s-2.23,10.62-2.23,10.62c0,0,62.77,37.32,85.55,40.9,22.79,3.58,49.21-40.03,25.25-64.17ZM697.4,324.83s.02,0,.06-.02c2.33-.8,76.08-25.76,85.11,2.7,2.98,9.4-57.01,7.49-85.16-2.68Z"/>
              <path class="cls-28" d="M782.56,327.51c-9.03-28.46-82.77-3.5-85.11-2.7-.09,0-.19-.03-.27-.06l-27.93-10.09h0c.55-.1,45.2-18.66,75.93-19.13,44.23-.67,37.37,31.98,37.37,31.98Z"/>
            </g>
            <path class="cls-4" d="M682.01,318.58c26.16,11.98,52.59,59.93,43.75,103.85-3.76-10.13-11.38-26.42-11.38-26.42,0,0-15.85,27.05-27.61,38.86,0,0,26.32-70.5-6.19-109.5l1.43-6.79Z"/>
            <path class="cls-28" d="M681.74,319.87c-.26,6.4.11,11.46,1.35,14.64l-6.44-3.64,5.09-11Z"/>
            <g>
              <path class="cls-4" d="M570.9,332.81c22.54,4.75,95.74-7.6,95.74-7.6l2.23-10.62h0c-.42-.42-63.54-63.93-95.38-50.11-31.94,13.87-25.13,63.58-2.59,68.33ZM558.78,286.41c19.87-23.15,78.04,26.04,79.87,27.61.03.02.05.03.05.03-30.17-.54-86.48-19.99-79.92-27.64Z"/>
              <path class="cls-28" d="M558.78,286.41c19.87-23.15,78.04,26.04,79.87,27.61.09.03.18.04.28.04l29.93.54h0c-.47-.29-34.29-33.26-62.55-44.56-40.67-16.27-47.53,16.39-47.53,16.39Z"/>
            </g>
            <path class="cls-4" d="M653.73,320.12c-29.07,1.84-72.93,36.88-82.52,80.66,7.58-8.05,21.23-20.43,21.23-20.43,0,0,3.73,30.64,9.83,45.74,0,0,4.16-74.56,50.04-99.18l1.43-6.79Z"/>
            <path class="cls-28" d="M654.73,315.7l-4.12.19s.43,10.41,1.71,11.25c3.37,2.21,6.53-10.68,2.4-11.44Z"/>
          </g>
          <path class="cls-4" d="M679.07,332.6c-10.4,2.19-19.52.92-26.92-4.94l5.1-24.27c9.69-2.87,18.6-.81,26.92,4.94l-5.1,24.27Z"/>
        </g>
        <g>
          <path class="cls-11" d="M725.45,180.25l-129.85,17.85s19.84-82.16.98-81.28c-1.32.06-2.85.52-4.58,1.48-.02.01-.04.01-.04.01-26.39,14.42-3.21,125.68-3.21,125.68h-22.84c-21.72-41.21-47.67-137.06,12.01-213.24,15.84-20.21,32.02-29.39,47.66-30.61,67.09-5.22,124.09,136.09,99.86,180.11Z"/>
          <path class="cls-9" d="M725.45,180.25l-129.85,17.85s19.84-82.16.98-81.28c16.81-6.17,71.62-33.45,29.01-116.68,67.09-5.22,124.09,136.09,99.86,180.11Z"/>
          <path class="cls-8" d="M736.44,173.8s-11.66-13.72-14.98-9.9c-3.33,3.82-9.03,10.61-13.31,10.25-4.28-.35-9.48-12.77-18.85-9.79-9.37,2.98-10.33,14.28-19.37,10.08-9.04-4.2-13.17-14.03-25.4-8.36-12.23,5.67-18.01,13.3-18.01,13.3l-24.03-4.24s-10.41,7.21-11.83,8.06c-1.42.85-4.73,19.94-3.45,24.18s8.97,11.45,15.92,12.3c6.94.85,4.38,9.76,24.15,0,19.77-9.76,4.04-11.88,12.82-10.18,8.78,1.7,10.32,3.82,16,4.67s10.7,8.06,20.9-1.7c10.2-9.76,11.06-12.73,13.92-12.73s8.54,4.24,12.12,5.09c3.58.85,10.62-1.7,13.94-4.24,3.32-2.55,14.19,3.82,18.77-.42s15.67-23.05.72-26.37Z"/>
          <path class="cls-8" d="M599.05,246.75c-.3,11.11-9.56,20.12-20.67,20.12s-19.87-9.01-19.56-20.12c.3-11.11,9.56-20.12,20.67-20.12s19.87,9.01,19.56,20.12Z"/>
        </g>
        <g>
          <path class="cls-15" d="M567.52,562.78c6.37.77,4.28,17.96,4.28,17.96l-18.91-6.59s6.81-12.31,14.63-11.37Z"/>
          <path class="cls-27" d="M573.99,597.07c-1.84,13.49-11.1,24.29-20.69,24.11-6.3-.11-11.18-4.94-13.26-12.07-1.08-3.71-1.41-8.05-.78-12.67,1.84-13.49,11.1-24.29,20.69-24.11,3.28.06,6.18,1.4,8.5,3.68,4.44,4.37,6.75,12.2,5.54,21.07Z"/>
          <path class="cls-21" d="M569.23,588.67c-1.84,13.49-11.1,24.29-20.69,24.11-3.28-.06-6.18-1.4-8.5-3.68-1.08-3.71-1.41-8.05-.78-12.67,1.84-13.49,11.1-24.29,20.69-24.11,3.28.06,6.18,1.4,8.5,3.68,1.08,3.71,1.41,8.05.78,12.67Z"/>
        </g>
        <g>
          <path class="cls-15" d="M961.74,990.39c5.84-2.88,13.55,12.34,13.55,12.34l-19.7,5.04s-1.01-13.84,6.15-17.38Z"/>
          <path class="cls-27" d="M986.16,1014.89c5.89,12.06,3.98,26.01-4.25,31.16-5.42,3.38-12.23,2.12-17.92-2.57-2.97-2.44-5.64-5.82-7.66-9.95-5.89-12.06-3.98-26.01,4.25-31.16,2.82-1.76,6.02-2.26,9.25-1.68,6.19,1.13,12.46,6.27,16.33,14.19Z"/>
          <path class="cls-21" d="M977.49,1010.65c5.89,12.06,3.98,26.01-4.25,31.16-2.82,1.76-6.02,2.26-9.25,1.68-2.97-2.44-5.64-5.82-7.66-9.95-5.89-12.06-3.98-26.01,4.25-31.16,2.82-1.76,6.02-2.26,9.25-1.68,2.97,2.44,5.64,5.82,7.66,9.95Z"/>
        </g>
        <g>
          <path class="cls-15" d="M759.04,897.77c5.31-3.78,15.44,9.91,15.44,9.91l-18.7,8.16s-3.26-13.43,3.26-18.07Z"/>
          <path class="cls-27" d="M787.25,917.86c7.8,10.89,8.19,24.9.87,31.3-4.82,4.21-11.77,4.08-18.18.4-3.34-1.91-6.54-4.79-9.21-8.52-7.8-10.89-8.19-24.9-.87-31.3,2.51-2.19,5.6-3.21,8.89-3.15,6.32.1,13.37,4.12,18.5,11.28Z"/>
          <path class="cls-21" d="M777.96,915.1c7.8,10.89,8.19,24.9.87,31.3-2.51,2.19-5.6,3.21-8.89,3.15-3.34-1.91-6.54-4.79-9.21-8.52-7.8-10.89-8.19-24.9-.87-31.3,2.51-2.19,5.6-3.21,8.89-3.15,3.34,1.91,6.54,4.79,9.21,8.52Z"/>
        </g>
        <g>
          <path class="cls-15" d="M631.6,1040.71c5.31-3.78,15.44,9.91,15.44,9.91l-18.7,8.16s-3.26-13.43,3.26-18.07Z"/>
          <path class="cls-27" d="M659.81,1060.79c7.8,10.89,8.19,24.9.87,31.3-4.82,4.21-11.77,4.08-18.18.4-3.34-1.91-6.54-4.79-9.21-8.52-7.8-10.89-8.19-24.9-.87-31.3,2.51-2.19,5.6-3.21,8.89-3.15,6.32.1,13.37,4.12,18.5,11.28Z"/>
          <path class="cls-21" d="M650.52,1058.04c7.8,10.89,8.19,24.9.87,31.3-2.51,2.19-5.6,3.21-8.89,3.15-3.34-1.91-6.54-4.79-9.21-8.52-7.8-10.89-8.19-24.9-.87-31.3,2.51-2.19,5.6-3.21,8.89-3.15,3.34,1.91,6.54,4.79,9.21,8.52Z"/>
        </g>
        <g>
          <path class="cls-15" d="M940.08,660.39c5.9-2.75,13.26,12.66,13.26,12.66l-19.8,4.59s-.69-13.87,6.54-17.25Z"/>
          <path class="cls-27" d="M963.92,685.46c5.61,12.2,3.39,26.11-4.96,31.07-5.49,3.26-12.26,1.84-17.85-2.98-2.91-2.51-5.5-5.95-7.42-10.13-5.61-12.2-3.39-26.11,4.96-31.07,2.86-1.7,6.07-2.13,9.28-1.47,6.16,1.27,12.31,6.55,15.99,14.57Z"/>
          <path class="cls-21" d="M955.35,681.02c5.61,12.2,3.39,26.11-4.96,31.07-2.86,1.7-6.07,2.13-9.28,1.47-2.91-2.51-5.5-5.95-7.42-10.13-5.61-12.2-3.39-26.11,4.96-31.07,2.86-1.7,6.07-2.13,9.28-1.47,2.91,2.51,5.5,5.95,7.42,10.13Z"/>
        </g>
        <g>
          <path class="cls-15" d="M633.85,723.19c5.72-3.11,14.05,11.78,14.05,11.78l-19.5,5.81s-1.56-13.77,5.46-17.59Z"/>
          <path class="cls-27" d="M659.26,746.68c6.37,11.81,5.02,25.8-3.02,31.27-5.28,3.59-12.14,2.6-18.03-1.85-3.07-2.32-5.87-5.58-8.05-9.63-6.37-11.81-5.02-25.8,3.02-31.27,2.75-1.87,5.94-2.5,9.18-2.04,6.23.88,12.71,5.76,16.9,13.52Z"/>
          <path class="cls-21" d="M650.41,742.79c6.37,11.81,5.02,25.8-3.02,31.27-2.75,1.87-5.94,2.5-9.18,2.04-3.07-2.32-5.87-5.58-8.05-9.63-6.37-11.81-5.02-25.8,3.02-31.27,2.75-1.87,5.94-2.5,9.18-2.04,3.07,2.32,5.87,5.58,8.05,9.63Z"/>
        </g>
        <g>
          <path class="cls-15" d="M430.74,897.08c6.32,1.06,3.45,18.16,3.45,18.16l-18.57-7.46s7.36-12,15.11-10.7Z"/>
          <path class="cls-27" d="M435.64,931.67c-2.45,13.41-12.18,23.79-21.74,23.18-6.29-.4-10.93-5.45-12.68-12.68-.91-3.76-1.04-8.12-.2-12.71,2.45-13.41,12.18-23.79,21.74-23.18,3.27.21,6.1,1.68,8.31,4.07,4.23,4.57,6.17,12.51,4.57,21.32Z"/>
          <path class="cls-21" d="M431.27,923.06c-2.45,13.41-12.18,23.79-21.74,23.18-3.27-.21-6.11-1.68-8.31-4.07-.91-3.76-1.04-8.12-.2-12.71,2.45-13.41,12.18-23.79,21.74-23.18,3.27.21,6.1,1.68,8.31,4.07.91,3.76,1.04,8.12.2,12.71Z"/>
        </g>
        <g>
          <path class="cls-15" d="M497.85,361.51c6.37.77,4.28,17.96,4.28,17.96l-18.91-6.59s6.81-12.31,14.63-11.37Z"/>
          <path class="cls-27" d="M504.32,395.8c-1.84,13.49-11.1,24.29-20.69,24.11-6.3-.11-11.18-4.94-13.26-12.07-1.08-3.71-1.41-8.05-.78-12.67,1.84-13.49,11.1-24.29,20.69-24.11,3.28.06,6.18,1.4,8.5,3.68,4.44,4.37,6.75,12.2,5.54,21.07Z"/>
          <path class="cls-21" d="M499.56,387.41c-1.84,13.49-11.1,24.29-20.69,24.11-3.28-.06-6.18-1.4-8.5-3.68-1.08-3.71-1.41-8.05-.78-12.67,1.84-13.49,11.1-24.29,20.69-24.11,3.28.06,6.18,1.4,8.5,3.68,1.08,3.71,1.41,8.05.78,12.67Z"/>
        </g>
        <g>
          <path class="cls-15" d="M478.78,691.69c6.28-1.59,10.51,15.03,10.51,15.03l-20.2.73s1.98-13.82,9.69-15.76Z"/>
          <path class="cls-30" d="M497.25,721c3.14,13.11-1.7,26.41-10.8,29.71-5.98,2.17-12.32-.53-16.85-6.36-2.36-3.04-4.23-6.92-5.3-11.42-3.14-13.11,1.7-26.41,10.8-29.71,3.12-1.13,6.33-.94,9.34.33,5.77,2.43,10.76,8.83,12.82,17.44Z"/>
          <path class="cls-2" d="M489.74,714.97c6.8,13.01-1.34,26.4-10.8,29.71-3.13,1.09-6.33.94-9.34-.33-2.36-3.04-4.23-6.92-5.3-11.42-3.14-13.11,1.7-26.41,10.8-29.71,3.12-1.13,6.33-.94,9.34.33,2.36,3.04,3.18,7.34,5.3,11.42Z"/>
        </g>
        <g>
          <path class="cls-15" d="M937.77,830.18c6.28-1.59,10.51,15.03,10.51,15.03l-20.2.73s1.98-13.82,9.69-15.76Z"/>
          <path class="cls-30" d="M956.24,859.49c3.14,13.11-1.7,26.41-10.8,29.71-5.98,2.17-12.32-.53-16.85-6.36-2.36-3.04-4.23-6.92-5.3-11.42-3.14-13.11,1.7-26.41,10.8-29.71,3.12-1.13,6.33-.94,9.34.33,5.77,2.43,10.76,8.83,12.82,17.44Z"/>
          <path class="cls-2" d="M948.73,853.46c6.8,13.01-1.34,26.4-10.8,29.71-3.13,1.09-6.33.94-9.34-.33-2.36-3.04-4.23-6.92-5.3-11.42-3.14-13.11,1.7-26.41,10.8-29.71,3.12-1.13,6.33-.94,9.34.33,2.36,3.04,3.18,7.34,5.3,11.42Z"/>
        </g>
        <g>
          <path class="cls-15" d="M578.93,905.45c6.28-1.59,10.51,15.03,10.51,15.03l-20.2.73s1.98-13.82,9.69-15.76Z"/>
          <path class="cls-30" d="M597.4,934.76c3.14,13.11-1.7,26.41-10.8,29.71-5.98,2.17-12.32-.53-16.85-6.36-2.36-3.04-4.23-6.92-5.3-11.42-3.14-13.11,1.7-26.41,10.8-29.71,3.12-1.13,6.33-.94,9.34.33,5.77,2.43,10.76,8.83,12.82,17.44Z"/>
          <path class="cls-2" d="M589.89,928.73c6.8,13.01-1.34,26.4-10.8,29.71-3.13,1.09-6.33.94-9.34-.33-2.36-3.04-4.23-6.92-5.3-11.42-3.14-13.11,1.7-26.41,10.8-29.71,3.12-1.13,6.33-.94,9.34.33,2.36,3.04,3.18,7.34,5.3,11.42Z"/>
        </g>
        <g>
          <path class="cls-15" d="M766.07,672.6c6.44-.22,7.02,17.01,7.02,17.01l-19.78-3.57s4.86-13.16,12.76-13.44Z"/>
          <path class="cls-30" d="M777.78,705.33c.26,13.56-7.27,25.6-16.81,26.91-6.27.86-11.86-3.14-15.02-9.83-1.65-3.49-2.64-7.71-2.72-12.35-.26-13.56,7.27-25.6,16.81-26.91,3.27-.45,6.35.43,9,2.31,5.08,3.62,8.57,10.96,8.74,19.87Z"/>
          <path class="cls-2" d="M771.76,697.81c3.84,14.24-6.91,25.67-16.81,26.91-3.27.41-6.35-.43-9-2.31-1.65-3.49-2.64-7.71-2.72-12.35-.26-13.56,7.27-25.6,16.81-26.91,3.27-.45,6.35.43,9,2.31,1.65,3.49,1.52,7.89,2.72,12.35Z"/>
        </g>
        <g>
          <path class="cls-15" d="M806.27,1031.06c6.44-.22,7.02,17.01,7.02,17.01l-19.78-3.57s4.86-13.16,12.76-13.44Z"/>
          <path class="cls-30" d="M817.98,1063.8c.26,13.56-7.27,25.6-16.81,26.91-6.27.86-11.86-3.14-15.02-9.83-1.65-3.49-2.64-7.71-2.72-12.35-.26-13.56,7.27-25.6,16.81-26.91,3.27-.45,6.35.43,9,2.31,5.08,3.62,8.57,10.96,8.74,19.87Z"/>
          <path class="cls-2" d="M811.96,1056.28c3.84,14.24-6.91,25.67-16.81,26.91-3.27.41-6.35-.43-9-2.31-1.65-3.49-2.64-7.71-2.72-12.35-.26-13.56,7.27-25.6,16.81-26.91,3.27-.45,6.35.43,9,2.31,1.65,3.49,1.52,7.89,2.72,12.35Z"/>
        </g>
        <g>
          <path class="cls-15" d="M350.89,830.13c6.44-.22,7.02,17.01,7.02,17.01l-19.78-3.57s4.86-13.16,12.76-13.44Z"/>
          <path class="cls-30" d="M362.6,862.87c.26,13.56-7.27,25.6-16.81,26.91-6.27.86-11.86-3.14-15.02-9.83-1.65-3.49-2.64-7.71-2.72-12.35-.26-13.56,7.27-25.6,16.81-26.91,3.27-.45,6.35.43,9,2.31,5.08,3.62,8.57,10.96,8.74,19.87Z"/>
          <path class="cls-2" d="M356.58,855.35c3.84,14.24-6.91,25.67-16.81,26.91-3.27.41-6.35-.43-9-2.31-1.65-3.49-2.64-7.71-2.72-12.35-.26-13.56,7.27-25.6,16.81-26.91,3.27-.45,6.35.43,9,2.31,1.65,3.49,1.52,7.89,2.72,12.35Z"/>
        </g>
        <g>
          <path class="cls-15" d="M270.72,977.89c6.44-.22,7.02,17.01,7.02,17.01l-19.78-3.57s4.86-13.16,12.76-13.44Z"/>
          <path class="cls-30" d="M282.43,1010.63c.26,13.56-7.27,25.6-16.81,26.91-6.27.86-11.86-3.14-15.02-9.83-1.65-3.49-2.64-7.71-2.72-12.35-.26-13.56,7.27-25.6,16.81-26.91,3.27-.45,6.35.43,9,2.31,5.08,3.62,8.57,10.96,8.74,19.87Z"/>
          <path class="cls-2" d="M276.41,1003.1c3.84,14.24-6.91,25.67-16.81,26.91-3.27.41-6.35-.43-9-2.31-1.65-3.49-2.64-7.71-2.72-12.35-.26-13.56,7.27-25.6,16.81-26.91,3.27-.45,6.35.43,9,2.31,1.65,3.49,1.52,7.89,2.72,12.35Z"/>
        </g>
        <g>
          <path class="cls-15" d="M425.56,482.32c6.19-1.96,11.41,14.35,11.41,14.35l-20.16,1.94s1.15-13.89,8.74-16.29Z"/>
          <path class="cls-30" d="M445.78,510.43c3.92,12.88-.12,26.43-9.02,30.26-5.85,2.52-12.35.21-17.23-5.33-2.54-2.88-4.64-6.65-5.99-11.06-3.92-12.88.12-26.43,9.02-30.26,3.05-1.31,6.28-1.31,9.36-.23,5.91,2.08,11.29,8.15,13.86,16.62Z"/>
          <path class="cls-2" d="M437.91,504.87c7.58,12.56.25,26.39-9.02,30.26-3.06,1.28-6.28,1.31-9.36.23-2.54-2.88-4.64-6.65-5.99-11.06-3.92-12.88.12-26.43,9.02-30.26,3.05-1.31,6.28-1.31,9.36-.23,2.54,2.88,3.62,7.13,5.99,11.06Z"/>
        </g>
        <g>
          <path class="cls-15" d="M738.72,552.57c6.28-1.59,10.51,15.03,10.51,15.03l-20.2.73s1.98-13.82,9.69-15.76Z"/>
          <path class="cls-30" d="M757.19,581.88c3.14,13.11-1.7,26.41-10.8,29.71-5.98,2.17-12.32-.53-16.85-6.36-2.36-3.04-4.23-6.92-5.3-11.42-3.14-13.11,1.7-26.41,10.8-29.71,3.12-1.13,6.33-.94,9.34.33,5.77,2.43,10.76,8.83,12.82,17.44Z"/>
          <path class="cls-2" d="M749.67,575.85c6.8,13.01-1.34,26.4-10.8,29.71-3.13,1.09-6.33.94-9.34-.33-2.36-3.04-4.23-6.92-5.3-11.42-3.14-13.11,1.7-26.41,10.8-29.71,3.12-1.13,6.33-.94,9.34.33,2.36,3.04,3.18,7.34,5.3,11.42Z"/>
        </g>
        <g>
          <path class="cls-15" d="M655.91,390.09c6.28-1.59,10.51,15.03,10.51,15.03l-20.2.73s1.98-13.82,9.69-15.76Z"/>
          <path class="cls-30" d="M674.38,419.4c3.14,13.11-1.7,26.41-10.8,29.71-5.98,2.17-12.32-.53-16.85-6.36-2.36-3.04-4.23-6.92-5.3-11.42-3.14-13.11,1.7-26.41,10.8-29.71,3.12-1.13,6.33-.94,9.34.33,5.77,2.43,10.76,8.83,12.82,17.44Z"/>
          <path class="cls-2" d="M666.86,413.37c6.8,13.01-1.34,26.4-10.8,29.71-3.13,1.09-6.33.94-9.34-.33-2.36-3.04-4.23-6.92-5.3-11.42-3.14-13.11,1.7-26.41,10.8-29.71,3.12-1.13,6.33-.94,9.34.33,2.36,3.04,3.18,7.34,5.3,11.42Z"/>
        </g>
        <g>
          <path class="cls-15" d="M818.55,357.3c5.43-3.6,15.08,10.44,15.08,10.44l-18.95,7.52s-2.8-13.54,3.87-17.97Z"/>
          <path class="cls-27" d="M846.03,378.35c7.42,11.16,7.33,25.19-.2,31.34-4.95,4.04-11.89,3.68-18.17-.22-3.27-2.03-6.36-5.02-8.91-8.84-7.42-11.16-7.33-25.19.2-31.34,2.58-2.11,5.7-3.02,8.99-2.85,6.3.31,13.21,4.58,18.09,11.91Z"/>
          <path class="cls-21" d="M836.85,375.28c7.42,11.16,7.33,25.19-.2,31.34-2.58,2.11-5.7,3.02-8.99,2.85-3.27-2.03-6.36-5.02-8.91-8.84-7.42-11.16-7.33-25.19.2-31.34,2.58-2.11,5.7-3.02,8.99-2.85,3.27,2.03,6.36,5.02,8.91,8.84Z"/>
        </g>
        <g>
          <path class="cls-15" d="M866.91,486.25c5.43-3.6,15.08,10.44,15.08,10.44l-18.95,7.52s-2.8-13.54,3.87-17.97Z"/>
          <path class="cls-27" d="M894.39,507.31c7.42,11.16,7.33,25.19-.2,31.34-4.95,4.04-11.89,3.68-18.17-.22-3.27-2.03-6.36-5.02-8.91-8.84-7.42-11.16-7.33-25.19.2-31.34,2.58-2.11,5.7-3.02,8.99-2.85,6.3.31,13.21,4.58,18.09,11.91Z"/>
          <path class="cls-21" d="M885.21,504.23c7.42,11.16,7.33,25.19-.2,31.34-2.58,2.11-5.7,3.02-8.99,2.85-3.27-2.03-6.36-5.02-8.91-8.84-7.42-11.16-7.33-25.19.2-31.34,2.58-2.11,5.7-3.02,8.99-2.85,3.27,2.03,6.36,5.02,8.91,8.84Z"/>
        </g>
        <g>
          <path class="cls-15" d="M466.52,1035.75c6.41-.79,8.51,16.28,8.51,16.28l-20.07-1.8s3.69-13.51,11.56-14.48Z"/>
          <path class="cls-27" d="M481.1,1067.24c1.46,13.45-4.99,26.08-14.41,28.22-6.19,1.41-12.12-2.07-15.86-8.45-1.95-3.32-3.31-7.42-3.81-12.03-1.46-13.45,4.99-26.08,14.41-28.22,3.22-.73,6.38-.14,9.19,1.5,5.4,3.14,9.53,10.13,10.49,18.97Z"/>
          <path class="cls-21" d="M474.43,1060.3c1.46,13.45-4.99,26.08-14.41,28.22-3.22.73-6.38.14-9.19-1.5-1.95-3.32-3.31-7.42-3.81-12.03-1.46-13.45,4.99-26.08,14.41-28.22,3.22-.73,6.38-.14,9.19,1.5,1.95,3.32,3.31,7.42,3.81,12.03Z"/>
        </g>
        <g>
          <path class="cls-15" d="M348.23,658.07c6.38.73,4.4,17.93,4.4,17.93l-18.96-6.46s6.73-12.35,14.56-11.46Z"/>
          <path class="cls-27" d="M354.94,692.3c-1.75,13.5-10.94,24.36-20.53,24.25-6.31-.07-11.22-4.87-13.34-11.98-1.11-3.71-1.46-8.04-.86-12.66,1.75-13.5,10.94-24.36,20.53-24.25,3.28.04,6.19,1.36,8.52,3.62,4.47,4.34,6.83,12.15,5.68,21.02Z"/>
          <path class="cls-21" d="M350.12,683.95c-1.75,13.5-10.94,24.36-20.53,24.25-3.28-.04-6.19-1.36-8.52-3.62-1.11-3.71-1.46-8.04-.86-12.66,1.75-13.5,10.94-24.36,20.53-24.25,3.28.04,6.19,1.36,8.52,3.62,1.11,3.71,1.46,8.04.86,12.66Z"/>
        </g>
      </g>
      <g>
        <g>
          <path class="cls-11" d="M531.52,571.11s-57.75,152.82-139.75,160.99c-24.33,2.41-42.03-1-54.91-7.11-30.53-14.46-33.94-43.93-34.24-45.99-.43-2.91,130.28-67.1,154.2-150.54l26.81,15.31,47.87,27.34Z"/>
          <path class="cls-9" d="M531.52,571.11s-57.75,152.82-139.75,160.99c-24.33,2.41-42.03-1-54.91-7.11,2.37-10.99,12.57-20.4,34.01-25.3,67.28-15.36,100.38-109.48,112.77-155.91l47.87,27.34Z"/>
          <path class="cls-11" d="M552.93,500.8c-1.45,5.09-3.11,9.68-4.91,13.8,0,0,0,.02-.02.07-10.91,24.99-26.73,32.99-27.91,32.02-.92-.74-24.33-9.17-40.32-15.39-8.38-3.27-14.74-5.93-14.74-6.57,0-1.84,3.7-61.51,18.96-66.14,15.02-4.53,6,21.74,5.68,22.66,9.15-11.12,24.41-43.47,44.28-48.09,19.9-4.63-3.7,23.13-5.54,33.3,0,0,34.68-1.61,24.51,34.35Z"/>
          <path class="cls-9" d="M548.02,514.6s0,.02-.02.07c-10.91,24.99-26.73,32.99-27.91,32.02-.92-.74-24.33-9.17-40.32-15.39,5.93-14.85,13.93-30.11,9.89-41.6l38.76-23.25s-26.98,26.58-14.64,43.77c12.34,17.17,34.24,4.39,34.24,4.39Z"/>
          <path class="cls-16" d="M488.45,528.47c-15.76-9.41-32.43-16.25-42.43-3.74-10,12.51-19.4,29.49,2.12,39.79,21.52,10.3,89.11,39.82,93.35,23.55,4.24-16.28,5.22-42.64-9.97-48.1-15.19-5.46-43.07-11.5-43.07-11.5Z"/>
          <path class="cls-22" d="M180.48,1113.72s-.76,5.04-2.1,12.96c-3.68,22-11.75,66.18-20.01,85.74-2.58,6.13-5.18,9.84-7.67,9.73-4.26-.18-20.26-3.07-20.26-3.07l-.74-6.1s-55.1-3.02-70.81-22.46c-7-8.67-9.1-14.9-8.02-19.42,1.33-5.6,7.57-8.54,15.46-10.17,14.24-2.94,42.3,4.44,45.94-8.3,2.37-8.25,4.11-32.1,5.06-47.86.51-8.56.77-14.72.77-14.72l62.38,23.66Z"/>
          <path class="cls-22" d="M392.48,1221.92c-12.04,7.69-34.57,6.21-51.69,3.52-12.83-2-22.61-4.68-22.61-4.68l-2.63,5.55s-16.08-2.35-20.17-3.52c-7.16-2.05-4.4-36.85-.57-67.18,3.02-23.95,6.72-45.11,6.72-45.11l66.67-2.63s-13.73,47.96-14.33,61.18c-.59,13.23,28.37,15.15,40.94,22.46,12.57,7.31,18.71,16.95-2.33,30.41Z"/>
          <path class="cls-23" d="M392.48,1221.92c-12.04,7.69-34.57,6.21-51.69,3.52-14.1-21.28-33.88-51.37-45.99-69.82,3.02-23.95,6.72-45.11,6.72-45.11l66.67-2.63s-13.73,47.96-14.33,61.18c-.59,13.23,28.37,15.15,40.94,22.46,12.57,7.31,18.71,16.95-2.33,30.41Z"/>
          <path class="cls-11" d="M247.94,960.86c-1.02.07-13.87,35.24-26.55,70.68-12.9,36-25.63,72.26-25.63,72.26l-94.52-25.55s.71-41.65,3.93-86.2c1.02-14.29,2.32-28.9,3.93-42.52,3.22-27.35,7.74-50.73,14.01-59.72,13.34-19.09,68.79,23,101.12,50.22,14.03,11.81,23.71,20.83,23.71,20.83Z"/>
          <path class="cls-16" d="M105.67,1065.23c23.21,8.05,70.28,24.4,89.32,31.01,4.59,1.59,7.03,6.58,5.49,11.18l-5.24,15.68c-1.58,4.71-6.72,7.21-11.4,5.53l-87.12-31.25c-5.06-1.82-8.17-6.9-7.5-12.23l1.33-10.52c.91-7.24,8.25-11.8,15.14-9.41Z"/>
          <path class="cls-11" d="M407.68,1033.79c-9.92,37.13-19.75,68.21-19.75,68.21l-97.74-5.75s-.36-24.74-.94-54.26c-.82-43.5-2.07-97.39-3.2-97.85,0,0,10.78-4.91,26.4-11.16,38.89-15.57,107.76-39.46,114.51-16.61.61,2.07.99,4.68,1.13,7.71,1.17,22.64-9.69,69.69-20.42,109.71Z"/>
          <path class="cls-9" d="M247.94,960.86c-1.02.07-13.87,35.24-26.55,70.68-52.7-11.73-95.26-29.31-116.22-39.5,1.02-14.29,2.32-28.9,3.93-42.52,22.93-1.95,65.78-5.5,115.14-9.5,14.03,11.81,23.71,20.83,23.71,20.83Z"/>
          <path class="cls-9" d="M407.68,1033.79c-39.73,9.81-80.24,11.35-118.42,8.2-.82-43.5-2.07-97.39-3.2-97.85,0,0,10.78-4.91,26.4-11.16,41.48-3.27,82.24-6.42,115.64-8.9,1.17,22.64-9.69,69.69-20.42,109.71Z"/>
          <path class="cls-16" d="M387.86,1088.26c-24.56.28-74.39.85-94.54,1.08-4.86.06-8.75,4.01-8.75,8.87v16.53c0,4.97,4.09,8.97,9.06,8.86l92.54-1.99c5.37-.12,9.94-3.95,10.99-9.22l2.08-10.39c1.43-7.15-4.08-13.81-11.37-13.73Z"/>
          <path class="cls-11" d="M399.43,988.05c-39.58,19.8-293-11.37-302.69-43.49-3.1-10.32-4.85-27.22-5.32-47.48-1.03-42.91,3.53-100.86,12.6-142.87,13.32-61.82,87.91-154.02,176.1-150.66,8.15.31,39.56,1.45,72.35,24.46,28.26,19.81,57.52,55.91,73.78,121.71,35.14,142.13,12.77,218.52-26.83,238.32Z"/>
          <path class="cls-9" d="M398.24,985.28c-39.58,19.8-293-11.37-302.69-43.49-3.1-10.32-4.85-27.22-5.32-47.48,225.54-29.85,254.75-215.14,261.06-269.06,28.26,19.81,57.52,55.91,73.78,121.71,35.14,142.13,12.77,218.52-26.83,238.32Z"/>
          <path class="cls-16" d="M435.1,977.85c-9.68,8.76-102.76,28.72-151.36,13.18-20.83-6.67-16.77-31.12-5.32-56.88,15.25-34.34,43.62-71.02,43.62-71.02,0,0-6.47,80.49,22.18,82.08,22.93,1.28,72.9-15.8,91.94-22.69,4.76-1.71,7.59-2.79,7.59-2.79,0,0,1.04,49.37-8.64,58.13Z"/>
          <path class="cls-8" d="M435.1,977.85c-9.68,8.76-102.76,28.72-151.36,13.18-20.83-6.67-16.77-31.12-5.32-56.88,6.39-7.59,12.52-14.8,12.52-14.8,0,0,1.82,26.53,5.14,49.76.56,3.94,30.48,17.35,82.7,9.51,52.21-7.85,42.19-5.64,49.4-15.59,4.95-6.82,6.77-27.9,7.97-40.51,4.76-1.71,7.59-2.79,7.59-2.79,0,0,1.04,49.37-8.64,58.13Z"/>
          <path class="cls-16" d="M321.17,950.67c-6.57,60.2-43.78,50.36-113.25,45.89-69.46-4.45-125.6-25.63-131.38-42.99-1.07-3.19-1.25-6.31-.82-9.27,1.87-13.13,15.54-23.15,15.54-23.15,0,0,141.55,50.36,176.25,16.79,34.7-33.58,12.78-201.44,12.78-201.44l32.71-28.93s2.38,29.51,4.8,68.72c3.6,58.41,7.29,138.37,3.37,174.38Z"/>
          <path class="cls-8" d="M321.17,950.67c-6.57,60.2-43.78,50.36-113.25,45.89-69.46-4.45-125.6-25.63-131.38-42.99-1.07-3.19-1.25-6.31-.82-9.27,33.29,31.22,154.14,48.81,208.88,44.62,59.19-4.52,29.62-204.15,29.62-204.15.72-3.09,1.94-5.91,3.58-8.48,3.6,58.41,7.29,138.37,3.37,174.38Z"/>
          <path class="cls-22" d="M300,844.67c117.08,0,143.78-22.09,143.78-22.09,4.14,11.63,5.79,28,6.33,50.12,0,0-57.54,21.89-150.11,21.89s-211.18-24.96-211.18-24.96c-1.32-13.19-1.03-26.28,2.45-39.21,0,0,91.66,14.25,208.73,14.25Z"/>
          <path class="cls-11" d="M187.35,666.86c-.58,1.46-1.3,2.97-2.15,4.55-15.15,27.72-71.88,70.81-71.88,70.81,0,0,11.76,24.32,13.09,28.32.12.33.18,1.25.2,2.63.11,14.98-6.95,84.71-45.62,60.97-35.85-22.01-53.67-59.62-43.65-104.49.13-.56.26-1.13.41-1.69,1.76-7.44,4.29-15.07,7.62-22.85,23.81-55.55,119.8-86.93,128.49-88.06,0,0,24.17,22.56,13.49,49.81Z"/>
          <path class="cls-9" d="M113.32,742.22s11.76,24.32,13.09,28.32c.12.33.18,1.25.2,2.63-34.94-29.69-54.35-39.37-62.83-38.48-1.28.14-.85-1.46.41-1.69.99-.18,2.65-.16,5.11.08,29.29,2.84,86.55-46.57,115.9-61.67-15.15,27.72-71.88,70.81-71.88,70.81Z"/>
          <path class="cls-3" d="M218.68,875.92c-8.84,16.82-41.91,16.41-62.97,3.25-2.88-1.79-5.52-3.81-7.85-6.08-19.44-18.79-28.52-28.19-30.72-30.71-1.99-2.27,24.46-44.26,29.8-52.67.59-.94.92-1.46.92-1.46,0,0,27.09,15.26,42.22,19.02,15.13,3.76,35.5,21.95,5.72,20.68,0,0,32.91,28.83,22.89,47.96Z"/>
          <path class="cls-9" d="M218.68,875.92c-8.84,16.82-41.91,16.41-62.97,3.25,16.46-8.36,43.73-31.2,37.59-44.74-6.18-13.57-38.1-38.43-46.36-44.72.59-.94.92-1.46.92-1.46,0,0,27.09,15.26,42.22,19.02,15.13,3.76,35.5,21.95,5.72,20.68,0,0,32.91,28.83,22.89,47.96Z"/>
          <path class="cls-12" d="M342,843.61c-.21-6.26-5.37-11.27-11.68-11.27h-60.61c-6.47,0-11.71,5.24-11.71,11.7v51.19c0,6.47,5.24,11.71,11.71,11.71h60.61c6.46,0,11.7-5.24,11.7-11.71v-51.19c0-.15,0-.28-.02-.43ZM321.51,894.46c-.44.08-.9.13-1.38.13h-40.23c-.92,0-1.81-.16-2.63-.46-3.12-1.07-5.36-4.04-5.36-7.52v-33.94c0-4.4,3.57-7.98,7.98-7.98h40.35c.38,0,.76.03,1.12.11,3.81.58,6.75,3.88,6.75,7.87v33.94c0,3.48-2.23,6.44-5.34,7.52-.02.02-.03.02-.05.02-.33.12-.66.21-1,.28-.07.02-.15.03-.21.03Z"/>
          <g>
            <path class="cls-18" d="M297.97,630.82c-43.41,12.16-74.88,2.86-94.65-20.09-12.31-14.28-20.08-33.83-23.36-56.8-8.56-59.87,7.16-90.29,56.55-103.06,32.58-8.43,63.25-1.68,80.9,23.67,4.83,6.92,8.67,15.23,11.34,24.99,12.37,45.51,39.68,111.57-30.77,131.28Z"/>
            <path class="cls-7" d="M297.97,630.82c-43.41,12.16-74.88,2.86-94.65-20.09,101.15-46.76,117.65-100.15,114.08-136.18,4.83,6.92,8.67,15.23,11.34,24.99,12.37,45.51,39.68,111.57-30.77,131.28Z"/>
            <path class="cls-16" d="M307.02,803.07s9.23-70.1-21.44-58.67c-29.26,10.89-57.88-5.67-75.66-32.48-2.73-4.11-5.19-8.46-7.38-12.98-.81-1.68-1.58-3.35-2.3-5.06-1.43-3.38-44.29-13.52-36.75-52,7.56-38.49,13.96-49.93,3.7-80.85,0,0-4.72-29.92,10.55-34.78,15.28-4.86,8.23,60.13,26.39,68.43,18.14,8.3,17.6-18.01,45.21-25.09,27.65-7.06,53.76-18.12,62.09-15.1,8.31,3.04,14.51,17.68,22.72,5.75,8.23-11.94-11.3-57.81-8.76-64.68,1.96-5.27,5.96-5.9,9.27-.92,0,0,0,.02.02.03.99,1.5,1.91,3.48,2.69,6.01,3.43,10.97,9.15,34.94,29.87,60.29,3.55,4.34,7.21,9.22,10.81,14.41,17.58,25.24,33.86,57.96,26.81,71.68,0,0,23.69,125.49-97.84,155.99Z"/>
            <path class="cls-8" d="M279.63,575.39s20.9,9.45,40.37,2.31c.15,3.42-61.52,22.44-70.78,19.64-8.77-2.65,23.76-12.09,23.97-21.96.21-9.86,6.43,0,6.43,0Z"/>
            <path class="cls-8" d="M307.02,803.07s9.23-70.1-21.44-58.67c-29.26,10.89-57.88-5.67-75.66-32.48,11.01,3.42,22.85,4.07,22.85,4.07-35.91-13.06-20.68-38.64-20.68-38.64,2.18,29.93,97.95,23.02,126.39-34.81,28.13-57.22-3.14-145.94-3.81-147.86.99,1.5,1.91,3.48,2.69,6.01,3.43,10.97,9.15,34.94,29.87,60.29,3.55,4.34,7.21,9.22,10.81,14.41,17.58,25.24,33.86,57.96,26.81,71.68,0,0,23.69,125.49-97.84,155.99Z"/>
            <path class="cls-25" d="M302.63,583.96c-8.74,14.93-13.82,26.12-46,11.93,3.93.74,7.15-.61,9.76-2.92,6.46-5.68,9.13-17.14,9.13-17.14,0,0,8.41,8.56,18.83,9.33,2.66.21,5.45-.1,8.28-1.2Z"/>
            <path class="cls-6" d="M275.35,576.86c-9.09,2.46-17.86.94-22.56-3.35-1.56-1.41-2.68-3.14-3.2-5.11-2.17-7.97,5.87-17.07,17.92-20.36,4.8-1.3,9.5-1.48,13.57-.72,6.18,1.12,10.89,4.4,12.19,9.2,2.17,7.95-5.87,17.07-17.92,20.34Z"/>
            <path class="cls-16" d="M293.82,494.72c-10.07,1.06-24.3,6.83-19.64,14.96,4.66,8.13,16.95-3.09,21.72-3.57,4.77-.48,21.65,9.77,21.55,4.89s-13.56-17.34-23.63-16.28Z"/>
            <path d="M289.51,535.79c-.45,0-.85-.3-.97-.75-2.32-9.2,1.23-14.55,5.51-15.63,4.28-1.08,9.95,1.94,12.27,11.14.13.54-.19,1.08-.72,1.21-.53.14-1.08-.19-1.21-.72-1.99-7.86-6.49-10.54-9.84-9.69-3.35.85-6.04,5.34-4.06,13.2.13.54-.19,1.08-.72,1.21-.08.02-.17.03-.25.03Z"/>
            <path class="cls-16" d="M211.59,523.44c7.53-6.76,21.35-13.47,24.26-4.56,2.92,8.91-13.64,10.51-17.2,13.74-3.55,3.22-7.25,22.62-10.81,19.28-3.56-3.34-3.79-21.69,3.74-28.45Z"/>
            <path d="M230.65,557.17c-.32,0-.64-.16-.83-.44-3.39-5.07-4.3-10.09-2.49-13.76,1.16-2.36,3.34-3.82,5.97-3.99,4.05-.28,8.37,2.48,11.76,7.56.31.46.18,1.08-.28,1.39-.46.31-1.08.18-1.39-.28-2.94-4.4-6.66-6.89-9.97-6.67-1.9.12-3.46,1.17-4.3,2.88-1.46,2.97-.58,7.37,2.36,11.76.31.46.18,1.08-.28,1.39-.17.11-.36.17-.55.17Z"/>
            <g>
              <path class="cls-18" d="M177.67,571.28c1.3,7.41,2.5,16.67,3.26,22.9.49,4.19.8,7.02.8,7.02,0,0-14.96,17.6-25.79-12.84-10.81-30.45,18.07-29.56,18.66-28.75.99,1.33,2.06,5.96,3.07,11.68Z"/>
              <path class="cls-6" d="M177.67,571.28c1.3,7.41,2.5,16.67,3.26,22.9-5.7.46-16.38-8.05-12.47-17.14,3.2-7.44,7.05-6.72,9.21-5.75Z"/>
            </g>
            <g>
              <path class="cls-18" d="M340.42,532.98c1.77,7.31,4.37,16.28,6.16,22.29,1.22,4.04,2.07,6.75,2.07,6.75,0,0,20.75,10.16,18.51-22.08-2.26-32.23-28.37-19.88-28.59-18.9-.38,1.62.49,6.29,1.85,11.93Z"/>
              <path class="cls-6" d="M340.42,532.98c1.77,7.31,4.37,16.28,6.16,22.29,5.41-1.86,11.81-13.92,4.58-20.7-5.91-5.54-9.14-3.34-10.75-1.59Z"/>
            </g>
            <path class="cls-5" d="M275.35,576.86c-9.09,2.46-17.86.94-22.56-3.35,20.22,7.53,41.64-12.99,28.29-26.19,6.18,1.12,10.89,4.4,12.19,9.2,2.17,7.95-5.87,17.07-17.92,20.34Z"/>
            <path class="cls-13" d="M294.35,585.16c-7.72,16.64-27.32,7.39-27.95,7.8h-.02c6.46-5.68,9.13-17.14,9.13-17.14,0,0,8.41,8.56,18.83,9.33Z"/>
            <path class="cls-14" d="M296.08,588.61c2.28.69-4.78,12.3-12.39,11.68-7.61-.62-16.33-.89-15.55-3.45s8.21,1,16.26-.71c8.05-1.71,8.38-8.53,11.68-7.52Z"/>
          </g>
          <path class="cls-16" d="M133.29,761.15s-51.47,55.99-49.38,83.11c2.09,27.13,34.78,25.73,40.34,13.21,5.56-12.52,36.51-68.91,36.51-69.23s-2.09-31.62-27.47-27.1Z"/>
          <ellipse class="cls-19" cx="227.43" cy="466.44" rx="24.11" ry="8.1" transform="translate(-141.31 101.31) rotate(-19.29)"/>
        </g>
        <path class="cls-20" d="M158.37,1212.43c-2.58,6.13-5.18,9.84-7.67,9.73-4.26-.18-20.26-3.07-20.26-3.07l-.74-6.1s-55.1-3.02-70.81-22.46c-7-8.67-9.1-14.9-8.02-19.42,0,0,48.27-4.93,107.5,41.32Z"/>
      </g>
      <path class="cls-12" d="M216.61,853.81l-20.82-25.84-45.99-93.55-1.27-2.59s-72.08-61.08-93.13-43.84c-21.05,17.23,28.83-78.91,61.63-91.17,24.55-9.18,57.63-10.19,84.6,5.02,45.29,25.54,73.37,96.81,14.98,251.97Z"/>
      <path class="cls-1" d="M216.61,853.81l-20.82-25.84-45.99-93.55c1.16-1.09,2.39-1.96,3.72-2.59,0,0,4.88-69.24-22.24-88.71-27.12-19.47,44.07-22.22,68.97,50.77,18.61,54.55,14.8-31.33,1.38-92.05,45.29,25.54,73.37,96.81,14.98,251.97Z"/>
    </g>
  </g>
</svg>