<?xml version="1.0" encoding="UTF-8"?>
<svg id="Layer_1" xmlns="http://www.w3.org/2000/svg" viewBox="0 0 400 400">
  <defs>
    <style>
      .cls-1 {
        fill: #ebebd3;
      }
    </style>
  </defs>
  <path class="cls-1" d="M54.33,170.61c.16.3.24.67.24,1.11v6.53c0,.42-.05.76-.14,1.01-.08.25-.18.44-.3.57-.12.12-.25.19-.38.21h6.85l.48-2.79c-.28.53-.58.9-.91,1.11-.32.2-.79.3-1.42.3h-2.04v-2.99h1.68c.37,0,.65.05.84.15.2.1.31.22.33.35v-2.37c-.17.35-.57.52-1.2.51h-1.65v-2.9h1.89c.48,0,.87.1,1.17.3.3.19.52.53.66,1.01v-2.67h-6.8c.3.07.53.26.69.57Z"/>
  <path class="cls-1" d="M67.86,179.43c.68-.55,1.02-1.28,1.02-2.17,0-.66-.2-1.23-.59-1.71-.38-.48-1.12-.97-2.22-1.47-.84-.38-1.38-.68-1.6-.91-.22-.24-.33-.5-.33-.78,0-.31.12-.57.36-.78.25-.21.62-.32,1.12-.32s1.01.15,1.48.46c.48.3.85.68,1.11,1.14v-2.39c-.27-.19-.63-.35-1.08-.48-.44-.13-.9-.2-1.38-.2-1.08,0-1.95.28-2.61.83-.65.54-.97,1.26-.97,2.16,0,.62.2,1.16.58,1.62.4.46,1.2.96,2.39,1.5.6.29,1.03.57,1.29.83.26.26.39.55.39.87,0,.36-.16.64-.49.84-.33.2-.72.3-1.18.3-1.38,0-2.39-.7-3.01-2.1v2.84c.82.5,1.8.75,2.95.75s2.11-.28,2.78-.83Z"/>
  <path class="cls-1" d="M71.03,171.41h1.82v6.95c0,.54-.08.95-.23,1.23-.14.27-.32.42-.54.45h3.72c-.21-.02-.39-.17-.54-.46-.15-.3-.22-.71-.22-1.22v-6.95h1.54c.46,0,.83.09,1.11.28.29.18.54.54.75,1.07l-.22-2.71h-8.54l-.24,2.71.24-.51c.27-.56.72-.84,1.35-.84Z"/>
  <path class="cls-1" d="M66.19,269.91c6.21,0,11.23-1.71,15.05-5.13,3.82-3.42,5.73-7.92,5.73-13.51,0-5.01-1.74-9.15-5.21-12.4-3.42-3.3-7.92-4.96-13.51-4.96h-26.24c1.6.4,2.82,1.48,3.68,3.25.91,1.71,1.37,3.9,1.37,6.58v37.61c0,2.79-.4,5.04-1.2,6.75-.8,1.65-1.88,2.56-3.25,2.73h20.94c-.8-.11-1.57-.48-2.31-1.11-.74-.68-1.37-1.71-1.88-3.08-.51-1.37-.77-3.13-.77-5.3v-12.48c2.34.68,4.87,1.03,7.61,1.03ZM58.58,241.7h5.73c3.25,0,5.76.94,7.52,2.82,1.77,1.82,2.65,4.19,2.65,7.1,0,3.08-.83,5.58-2.48,7.52-1.65,1.88-4.02,2.82-7.1,2.82-2.22,0-4.33-.31-6.33-.94v-19.32Z"/>
  <path class="cls-1" d="M155.78,289.05c-1.37-1.14-2.59-2.68-3.68-4.62l-7.61-13.16c-1.37-2.39-2.79-4.05-4.27-4.96,4.33-.57,7.72-2.34,10.17-5.3,2.51-2.96,3.76-6.44,3.76-10.43,0-4.73-1.85-8.69-5.56-11.88-3.65-3.19-8.52-4.79-14.62-4.79h-25.05c3.48,1.14,5.21,4.45,5.21,9.92v37.53c0,2.11-.23,3.88-.68,5.3-.4,1.37-.97,2.39-1.71,3.08-.68.63-1.4,1-2.14,1.11h20.6c-.68-.11-1.37-.48-2.05-1.11-.63-.68-1.17-1.71-1.62-3.08-.46-1.37-.68-3.13-.68-5.3v-12.91h1.2c1.14,0,2.11.34,2.91,1.02.8.63,1.71,1.91,2.74,3.85l9.49,17.52h17.35c-1.08-.06-2.34-.65-3.76-1.79ZM131.76,260.76h-5.98v-19.06h5.9c3.13,0,5.61.88,7.44,2.65,1.88,1.71,2.82,3.9,2.82,6.58,0,3.02-.91,5.41-2.74,7.18-1.77,1.77-4.25,2.65-7.44,2.65Z"/>
  <path class="cls-1" d="M198.07,238.1c.46-1.37,1-2.36,1.62-2.99.68-.63,1.4-1.03,2.14-1.2h-21.03c2.96.97,4.45,4.05,4.45,9.23v38.9c0,2.62-.43,4.7-1.28,6.24-.8,1.54-1.85,2.39-3.16,2.57h20.94c-1.31-.23-2.36-1.11-3.16-2.65-.8-1.6-1.2-3.65-1.2-6.16v-38.9c0-1.99.23-3.68.68-5.04Z"/>
  <path class="cls-1" d="M277.87,281.19c0,3.02-.4,5.36-1.2,7.01-.8,1.6-1.77,2.48-2.91,2.65h20.35c-.68-.06-1.4-.46-2.14-1.2-.74-.74-1.34-1.79-1.79-3.16-.46-1.37-.68-3.13-.68-5.3v-37.87c0-2.73.43-4.93,1.28-6.58.91-1.65,2.02-2.59,3.33-2.82h-18.72l-14.96,34.45-15.13-34.45h-20.77c3.65.91,5.47,3.96,5.47,9.15v37.61c0,2.28-.28,4.19-.85,5.73-.51,1.48-1.17,2.56-1.97,3.25-.74.68-1.54,1.08-2.39,1.2h19.49c-.85-.11-1.68-.51-2.48-1.2-.8-.68-1.48-1.77-2.05-3.25-.57-1.54-.86-3.45-.86-5.73v-31.89l19.75,43.43,19.24-43.51v32.49Z"/>
  <path class="cls-1" d="M353.77,281.28c-1.82,1.14-4.53,1.71-8.12,1.71h-11.63v-17.01h9.57c2.11,0,3.7.29,4.79.86,1.14.57,1.77,1.23,1.88,1.97v-13.51c-.97,1.99-3.25,2.96-6.84,2.91h-9.4v-16.5h10.77c2.73,0,4.96.57,6.67,1.71,1.71,1.08,2.96,2.99,3.76,5.73v-15.22h-38.73c1.71.4,3.02,1.48,3.93,3.25.91,1.71,1.37,3.82,1.37,6.33v37.19c0,2.39-.26,4.3-.77,5.73-.46,1.42-1.03,2.51-1.71,3.25-.68.68-1.4,1.08-2.14,1.2h39.07l2.74-15.9c-1.6,3.02-3.33,5.13-5.21,6.33Z"/>
  <rect class="cls-1" x="41.02" y="315.85" width="89.98" height="3"/>
  <rect class="cls-1" x="270" y="315.85" width="86.02" height="3"/>
  <path class="cls-1" d="M356.02,208.85h-54.89l-5.92-7.42c3.69-12.85,4.73-26.34,3.01-39.64-2.02-15.65-7.79-30.59-16.83-43.56-9.04-12.97-21.07-23.58-35.08-30.96-14.01-7.37-29.6-11.29-45.45-11.42-15.85-.13-31.5,3.53-45.64,10.67-14.14,7.14-26.34,17.55-35.6,30.37-9.25,12.82-15.27,27.66-17.56,43.27-2.11,14.4-.98,29.07,3.28,42.96l-4.75,5.73h-59.56v6h315v-6ZM157.18,208.85l18.84-42.5-32.42,42.5h-26.52l32.44-44,4,14,44-48.5-17,67.5,17-25,4-39.5,48.93,75.5h-93.27ZM261.49,208.85l-36.97-50.5,15.5,14.5,14-9.5,25.87,45.5h-18.4ZM291.32,196.57l-37.31-46.72-14,11.5-41-48.5-40,48.5-9.5-11.5-40.32,48.61c-3.28-12.23-4.04-25.01-2.2-37.58,2.17-14.82,7.88-28.9,16.66-41.07,8.78-12.16,20.37-22.05,33.8-28.83,13.42-6.78,28.29-10.25,43.34-10.13,15.05.13,29.86,3.85,43.17,10.85,13.31,7,24.73,17.08,33.31,29.39,8.58,12.31,14.05,26.49,15.97,41.34,1.48,11.43.81,23-1.93,34.14Z"/>
  <path class="cls-1" d="M315.45,177.31l-2.48,2.73h7.36l.35-2.33c-.31.51-.9.77-1.76.77h-2.48c1.17-1.28,1.98-2.22,2.43-2.81.45-.59.79-1.12,1.01-1.6.23-.48.34-.93.34-1.36,0-.88-.31-1.58-.92-2.11-.61-.53-1.4-.79-2.36-.79-1.13,0-2.04.28-2.73.85-.69.57-1.03,1.28-1.03,2.14,0,.5.14.93.41,1.28.28.36.61.59,1,.7l1.34-1.46c-.29-.06-.51-.18-.66-.36-.15-.18-.23-.39-.23-.62,0-.28.12-.54.37-.77.25-.23.59-.35,1.04-.35s.86.15,1.17.46c.31.31.47.72.47,1.25s-.17,1.06-.5,1.64c-.33.58-1.05,1.49-2.16,2.72Z"/>
  <path class="cls-1" d="M325.14,180.27c1.16,0,2.06-.5,2.71-1.49.65-1,.97-2.31.97-3.94,0-1.54-.33-2.76-.98-3.66-.65-.9-1.53-1.35-2.63-1.35s-2.04.5-2.7,1.5c-.66,1-.98,2.33-.98,3.99,0,1.57.32,2.79.96,3.66.64.87,1.52,1.3,2.64,1.3ZM325,171.3c.56,0,1,.37,1.31,1.1.31.74.47,1.8.47,3.21,0,2.12-.5,3.18-1.49,3.18-.57,0-1.01-.37-1.31-1.13-.3-.75-.45-1.81-.45-3.18,0-2.12.49-3.18,1.47-3.18Z"/>
  <path class="cls-1" d="M332.12,177.31l-2.48,2.73h7.36l.35-2.33c-.31.51-.9.77-1.76.77h-2.48c1.17-1.28,1.98-2.22,2.43-2.81.45-.59.79-1.12,1.01-1.6.23-.48.34-.93.34-1.36,0-.88-.31-1.58-.92-2.11-.61-.53-1.4-.79-2.36-.79-1.13,0-2.04.28-2.73.85-.69.57-1.03,1.28-1.03,2.14,0,.5.14.93.41,1.28.28.36.61.59,1,.7l1.34-1.46c-.29-.06-.51-.18-.66-.36-.15-.18-.23-.39-.23-.62,0-.28.12-.54.37-.77.25-.23.59-.35,1.04-.35s.86.15,1.17.46c.31.31.47.72.47,1.25s-.17,1.06-.5,1.64c-.33.58-1.05,1.49-2.16,2.72Z"/>
  <path class="cls-1" d="M342.3,178.45c0,.42-.06.78-.18,1.07-.12.29-.27.47-.45.53h3.15c-.19-.06-.34-.23-.46-.53-.12-.29-.17-.64-.17-1.05v-.78h1.31v-1.46h-1.31v-6.19h-2.51l-3.84,7.13v.51h4.46v.77ZM339.93,176.23l2.37-4.46v4.46h-2.37Z"/>
  <path class="cls-1" d="M154.45,321.48c-.73.37-1.46.56-2.19.56-1.24,0-2.24-.47-3.01-1.42s-1.14-2.15-1.14-3.6.38-2.61,1.14-3.53c.76-.92,1.74-1.39,2.95-1.39.96,0,1.76.24,2.41.73.65.49,1.13,1.13,1.44,1.92v-3.89c-.97-.53-2.18-.79-3.62-.79s-2.74.32-3.86.96c-1.11.64-1.97,1.53-2.58,2.65-.61,1.13-.91,2.37-.91,3.71,0,1.98.62,3.61,1.85,4.87,1.23,1.26,2.89,1.89,4.97,1.89.89,0,1.73-.18,2.52-.53.79-.35,1.42-.8,1.89-1.36v-2.33c-.51.65-1.13,1.16-1.86,1.53Z"/>
  <path class="cls-1" d="M172.3,321.33l-4.45-10.95h-2.39l-4.25,10.89c-.31.8-.64,1.42-.98,1.86-.34.45-.65.69-.92.73h4.53c-.22-.03-.41-.13-.58-.3-.17-.17-.25-.42-.25-.75,0-.28.21-1,.63-2.15h5.16c.49,1.3.73,2.04.73,2.25,0,.28-.07.51-.21.67s-.32.26-.54.28h5.44c-.71-.23-1.36-1.07-1.92-2.53ZM164.3,318.9l1.88-4.98,1.92,4.98h-3.81Z"/>
  <path class="cls-1" d="M174.32,310.38l-.32,3.66.32-.69c.36-.75.97-1.13,1.82-1.13h2.45v9.37c0,.73-.1,1.28-.29,1.65-.2.37-.44.58-.74.62h5.02c-.28-.03-.53-.24-.73-.64-.2-.4-.3-.94-.3-1.63v-9.37h2.08c.62,0,1.12.12,1.51.37.38.25.72.73,1,1.45l-.3-3.66h-11.52Z"/>
  <path class="cls-1" d="M198.06,321.58c-.44.28-1.08.42-1.93.42h-2.75v-4.03h2.27c.5,0,.88.07,1.14.2.26.13.41.29.43.46v-3.2c-.23.47-.77.7-1.62.69h-2.23v-3.91h2.55c.65,0,1.17.13,1.58.39.4.26.7.72.89,1.37v-3.6h-9.17c.41.09.71.35.93.76.21.41.32.91.32,1.51v8.8c0,.57-.06,1.02-.17,1.36-.12.34-.25.59-.42.76-.16.17-.33.27-.51.29h9.25l.65-3.76c-.38.71-.79,1.21-1.22,1.49Z"/>
  <path class="cls-1" d="M212.62,322.34l-1.8-3.12c-.32-.57-.66-.96-1.01-1.17,1.03-.13,1.83-.55,2.42-1.25.59-.7.88-1.52.88-2.47,0-1.12-.44-2.06-1.31-2.81-.87-.75-2.03-1.13-3.47-1.13h-5.93c.82.27,1.24,1.05,1.24,2.35v8.89c0,.5-.05.92-.15,1.25-.1.33-.24.57-.4.73-.17.16-.34.25-.52.27h4.88c-.16-.03-.32-.12-.48-.27s-.29-.39-.39-.72c-.11-.32-.16-.74-.16-1.25v-3.06h.28c.27,0,.5.08.69.23.19.16.41.46.65.92l2.25,4.15h4.11c-.26-.01-.55-.16-.88-.42-.33-.27-.62-.63-.88-1.09ZM207.8,316.74h-1.42v-4.51h1.4c.74,0,1.33.21,1.77.62.44.41.66.93.66,1.57,0,.72-.21,1.28-.64,1.7-.42.42-1.02.63-1.77.63Z"/>
  <path class="cls-1" d="M221.49,311.37c.11-.32.24-.56.39-.71s.32-.24.5-.28h-4.98c.7.23,1.05.96,1.05,2.19v9.21c0,.62-.1,1.11-.29,1.48s-.45.57-.76.61h4.96c-.31-.05-.56-.27-.75-.64-.19-.37-.28-.85-.28-1.45v-9.21c0-.47.05-.87.16-1.19Z"/>
  <path class="cls-1" d="M235.29,310.75c.13.16.25.38.35.68.1.3.15.69.15,1.17v5.73l-6.36-7.95h-4.29c.23.08.5.24.8.49s.55.52.75.83.29.67.29,1.07v8.89c0,.5-.05.9-.14,1.21-.09.31-.22.55-.38.71s-.33.26-.51.28h4.49c-.18-.03-.36-.12-.56-.27s-.35-.39-.48-.71-.18-.73-.18-1.22v-6.86l4.51,5.51c.96,1.16,1.68,2.35,2.17,3.56h2.11v-11.25c0-.65.1-1.17.29-1.56.2-.39.45-.61.76-.67h-4.39c.27.09.47.22.61.37Z"/>
  <path class="cls-1" d="M250.65,318.05c.17.15.32.36.45.63.12.27.18.62.18,1.05v2.15c-.57.17-1.07.26-1.52.26-1.27,0-2.3-.48-3.1-1.44-.8-.96-1.19-2.17-1.19-3.62s.4-2.67,1.21-3.6c.81-.93,1.86-1.4,3.16-1.4.92,0,1.74.21,2.46.62s1.27.97,1.65,1.69v-3.5c-1.04-.54-2.34-.81-3.91-.81s-2.86.32-4.02.96c-1.15.64-2.04,1.53-2.67,2.65-.63,1.13-.94,2.38-.94,3.75,0,1.26.29,2.41.86,3.45.57,1.05,1.38,1.86,2.41,2.43s2.22.86,3.57.86c1.86,0,3.47-.27,4.82-.81v-3.71c0-.4.05-.74.16-1.01.11-.27.25-.48.42-.62.17-.14.35-.23.53-.25h-5.08c.19.03.37.11.55.26Z"/>
</svg>