<?xml version="1.0" encoding="UTF-8"?>
<svg id="Layer_1" xmlns="http://www.w3.org/2000/svg" xmlns:xlink="http://www.w3.org/1999/xlink" viewBox="0 0 399.83 400.66">
  <defs>
    <style>
      .cls-1 {
        fill: url(#radial-gradient-7);
      }

      .cls-2 {
        fill: url(#radial-gradient-6);
      }

      .cls-3 {
        fill: url(#radial-gradient-5);
      }

      .cls-4 {
        fill: url(#radial-gradient-4);
      }

      .cls-5 {
        fill: url(#radial-gradient-9);
      }

      .cls-6 {
        fill: url(#radial-gradient-8);
      }

      .cls-7 {
        fill: url(#radial-gradient-3);
      }

      .cls-8 {
        fill: url(#radial-gradient-2);
      }

      .cls-9 {
        font-family: BeaufortforLOL-Bold, 'Beaufort for LOL';
        font-size: 20px;
        font-weight: 700;
      }

      .cls-9, .cls-10 {
        fill: #fff;
      }

      .cls-11 {
        fill: url(#radial-gradient);
      }

      .cls-12 {
        fill: url(#radial-gradient-10);
      }
    </style>
    <radialGradient id="radial-gradient" cx="57.04" cy="176.71" fx="57.04" fy="176.71" r="4.41" gradientUnits="userSpaceOnUse">
      <stop offset="0" stop-color="#ebc350"/>
      <stop offset="1" stop-color="#cf9c2e"/>
    </radialGradient>
    <radialGradient id="radial-gradient-2" cx="65.18" cy="176.72" fx="65.18" fy="176.72" r="4.39" xlink:href="#radial-gradient"/>
    <radialGradient id="radial-gradient-3" cx="73.62" fx="73.62" r="4.75" xlink:href="#radial-gradient"/>
    <radialGradient id="radial-gradient-4" cx="78.16" cy="319" fx="78.16" fy="319" r="18.42" gradientTransform="translate(-48.73) scale(1.73 1)" xlink:href="#radial-gradient"/>
    <radialGradient id="radial-gradient-5" cx="331.09" cy="318" fx="331.09" fy="318" r="18.42" gradientTransform="translate(-259.5) scale(1.73 1)" xlink:href="#radial-gradient"/>
    <radialGradient id="radial-gradient-6" cx="198.19" cy="147.03" fx="198.19" fy="147.03" r="121.73" xlink:href="#radial-gradient"/>
    <radialGradient id="radial-gradient-7" cx="316.5" cy="176.61" fx="316.5" fy="176.61" r="4.53" xlink:href="#radial-gradient"/>
    <radialGradient id="radial-gradient-8" cx="324.85" cy="176.72" fx="324.85" fy="176.72" r="4.5" xlink:href="#radial-gradient"/>
    <radialGradient id="radial-gradient-9" cx="333.17" cy="176.61" fx="333.17" fy="176.61" r="4.53" xlink:href="#radial-gradient"/>
    <radialGradient id="radial-gradient-10" cx="341.35" cy="176.72" fx="341.35" fy="176.72" r="4.45" xlink:href="#radial-gradient"/>
  </defs>
  <g id="Restaurant">
    <g>
      <path class="cls-11" d="M54,172.29c.16.3.24.67.24,1.11v6.53c0,.42-.05.76-.14,1.01-.08.25-.18.44-.3.57-.12.12-.25.19-.38.21h6.85l.48-2.79c-.28.53-.58.9-.91,1.11-.32.2-.79.3-1.42.3h-2.04v-2.99h1.68c.37,0,.65.05.84.15.2.1.31.22.33.35v-2.37c-.17.35-.57.52-1.2.51h-1.65v-2.9h1.89c.48,0,.87.1,1.17.3.3.19.52.53.66,1.01v-2.67h-6.8c.3.07.53.26.69.57Z"/>
      <path class="cls-8" d="M67.53,181.11c.68-.55,1.02-1.28,1.02-2.17,0-.66-.2-1.23-.59-1.71-.38-.48-1.12-.97-2.22-1.47-.84-.38-1.38-.68-1.6-.91-.22-.24-.33-.5-.33-.78,0-.31.12-.57.36-.78.25-.21.62-.32,1.12-.32s1.01.15,1.48.46c.48.3.85.68,1.11,1.14v-2.39c-.27-.19-.63-.35-1.08-.48-.44-.13-.9-.2-1.38-.2-1.08,0-1.95.28-2.61.83-.65.54-.97,1.26-.97,2.16,0,.62.2,1.16.58,1.62.4.46,1.2.96,2.39,1.5.6.29,1.03.57,1.29.83.26.26.39.55.39.87,0,.36-.16.64-.49.84-.33.2-.72.3-1.18.3-1.38,0-2.39-.7-3.01-2.1v2.84c.82.5,1.8.75,2.95.75s2.11-.28,2.78-.83Z"/>
      <path class="cls-7" d="M70.71,173.08h1.82v6.95c0,.54-.08.95-.23,1.23-.14.27-.32.42-.54.45h3.72c-.21-.02-.39-.17-.54-.46-.15-.3-.22-.71-.22-1.22v-6.95h1.54c.46,0,.83.09,1.11.28.29.18.54.54.75,1.07l-.22-2.71h-8.54l-.24,2.71.24-.51c.27-.56.72-.84,1.35-.84Z"/>
    </g>
    <g>
      <path class="cls-10" d="M65.87,271.58c6.21,0,11.23-1.71,15.05-5.13,3.82-3.42,5.73-7.92,5.73-13.51,0-5.01-1.74-9.15-5.21-12.4-3.42-3.3-7.92-4.96-13.51-4.96h-26.24c1.6.4,2.82,1.48,3.68,3.25.91,1.71,1.37,3.9,1.37,6.58v37.61c0,2.79-.4,5.04-1.2,6.75-.8,1.65-1.88,2.56-3.25,2.73h20.94c-.8-.11-1.57-.48-2.31-1.11-.74-.68-1.37-1.71-1.88-3.08-.51-1.37-.77-3.13-.77-5.3v-12.48c2.34.68,4.87,1.03,7.61,1.03ZM58.26,243.37h5.73c3.25,0,5.76.94,7.52,2.82,1.77,1.82,2.65,4.19,2.65,7.1,0,3.08-.83,5.58-2.48,7.52-1.65,1.88-4.02,2.82-7.1,2.82-2.22,0-4.33-.31-6.33-.94v-19.32Z"/>
      <path class="cls-10" d="M151.78,286.12l-7.61-13.16c-1.37-2.39-2.79-4.05-4.27-4.96,4.33-.57,7.72-2.34,10.17-5.3,2.51-2.96,3.76-6.44,3.76-10.43,0-4.73-1.85-8.69-5.56-11.88-3.65-3.19-8.52-4.79-14.62-4.79h-25.05c3.48,1.14,5.21,4.45,5.21,9.92v37.53c0,2.11-.23,3.88-.68,5.3-.4,1.37-.97,2.39-1.71,3.08-.68.63-1.4,1-2.14,1.11h20.6c-.68-.11-1.37-.48-2.05-1.11-.63-.68-1.17-1.71-1.62-3.08-.46-1.37-.68-3.13-.68-5.3v-12.91h1.2c1.14,0,2.11.34,2.91,1.02.8.63,1.71,1.91,2.74,3.85l9.49,17.52h17.35c-1.08-.06-2.34-.65-3.76-1.79-1.37-1.14-2.59-2.68-3.68-4.62ZM131.43,262.44h-5.98v-19.06h5.9c3.13,0,5.61.88,7.44,2.65,1.88,1.71,2.82,3.9,2.82,6.58,0,3.02-.91,5.41-2.74,7.18-1.77,1.77-4.25,2.65-7.44,2.65Z"/>
      <path class="cls-10" d="M197.74,239.78c.46-1.37,1-2.36,1.62-2.99.68-.63,1.4-1.03,2.14-1.2h-21.03c2.96.97,4.45,4.05,4.45,9.23v38.9c0,2.62-.43,4.7-1.28,6.24-.8,1.54-1.85,2.39-3.16,2.57h20.94c-1.31-.23-2.36-1.11-3.16-2.65-.8-1.6-1.2-3.65-1.2-6.16v-38.9c0-1.99.23-3.68.68-5.04Z"/>
      <path class="cls-10" d="M290.45,238.41c.91-1.65,2.02-2.59,3.33-2.82h-18.72l-14.96,34.45-15.13-34.45h-20.77c3.65.91,5.47,3.96,5.47,9.15v37.61c0,2.28-.28,4.19-.85,5.73-.51,1.48-1.17,2.56-1.97,3.25-.74.68-1.54,1.08-2.39,1.2h19.49c-.85-.11-1.68-.51-2.48-1.2-.8-.68-1.48-1.77-2.05-3.25-.57-1.54-.86-3.45-.86-5.73v-31.89l19.75,43.43,19.24-43.51v32.49c0,3.02-.4,5.36-1.2,7.01-.8,1.6-1.77,2.48-2.91,2.65h20.35c-.68-.06-1.4-.46-2.14-1.2-.74-.74-1.34-1.79-1.79-3.16-.46-1.37-.68-3.13-.68-5.3v-37.87c0-2.73.43-4.93,1.28-6.58Z"/>
      <path class="cls-10" d="M353.44,282.95c-1.82,1.14-4.53,1.71-8.12,1.71h-11.63v-17.01h9.57c2.11,0,3.7.29,4.79.86,1.14.57,1.77,1.23,1.88,1.97v-13.51c-.97,1.99-3.25,2.96-6.84,2.91h-9.4v-16.5h10.77c2.73,0,4.96.57,6.67,1.71,1.71,1.08,2.96,2.99,3.76,5.73v-15.22h-38.73c1.71.4,3.02,1.48,3.93,3.25.91,1.71,1.37,3.82,1.37,6.33v37.19c0,2.39-.26,4.3-.77,5.73-.46,1.42-1.03,2.51-1.71,3.25-.68.68-1.4,1.08-2.14,1.2h39.07l2.74-15.9c-1.6,3.02-3.33,5.13-5.21,6.33Z"/>
    </g>
    <rect class="cls-4" x="41.55" y="317.5" width="90" height="3"/>
    <rect class="cls-3" x="268.55" y="316.5" width="90" height="3"/>
    <path class="cls-2" d="M355.69,210.53h-54.89l-5.92-7.42c3.69-12.85,4.73-26.34,3.01-39.64-2.02-15.65-7.79-30.59-16.83-43.56-9.04-12.97-21.07-23.58-35.08-30.96-14.01-7.37-29.6-11.29-45.45-11.42-15.85-.13-31.5,3.53-45.64,10.67-14.14,7.14-26.34,17.55-35.6,30.37-9.25,12.82-15.27,27.66-17.56,43.27-2.11,14.4-.98,29.07,3.28,42.96l-4.75,5.73h-59.56v6h315v-6ZM156.85,210.53l18.84-42.5-32.42,42.5h-26.52l32.44-44,4,14,44-48.5-17,67.5,17-25,4-39.5,48.93,75.5h-93.27ZM261.16,210.53l-36.97-50.5,15.5,14.5,14-9.5,25.87,45.5h-18.4ZM291,198.25l-37.31-46.72-14,11.5-41-48.5-40,48.5-9.5-11.5-40.32,48.61c-3.28-12.23-4.04-25.01-2.2-37.58,2.17-14.82,7.88-28.9,16.66-41.07,8.78-12.16,20.37-22.05,33.8-28.83,13.42-6.78,28.29-10.25,43.34-10.13,15.05.13,29.86,3.85,43.17,10.85,13.31,7,24.73,17.08,33.31,29.39,8.58,12.31,14.05,26.49,15.97,41.34,1.48,11.43.81,23-1.93,34.14Z"/>
    <g>
      <path class="cls-1" d="M315.13,178.99l-2.48,2.73h7.36l.35-2.33c-.31.51-.9.77-1.76.77h-2.48c1.17-1.28,1.98-2.22,2.43-2.81.45-.59.79-1.12,1.01-1.6.23-.48.34-.93.34-1.36,0-.88-.31-1.58-.92-2.11-.61-.53-1.4-.79-2.36-.79-1.13,0-2.04.28-2.73.85-.69.57-1.03,1.28-1.03,2.14,0,.5.14.93.41,1.28.28.36.61.59,1,.7l1.34-1.46c-.29-.06-.51-.18-.66-.36-.15-.18-.23-.39-.23-.62,0-.28.12-.54.37-.77.25-.23.59-.35,1.04-.35s.86.15,1.17.46c.31.31.47.72.47,1.25s-.17,1.06-.5,1.64c-.33.58-1.05,1.49-2.16,2.72Z"/>
      <path class="cls-6" d="M324.81,181.95c1.16,0,2.06-.5,2.71-1.49.65-1,.97-2.31.97-3.94,0-1.54-.33-2.76-.98-3.66-.65-.9-1.53-1.35-2.63-1.35s-2.04.5-2.7,1.5c-.66,1-.98,2.33-.98,3.99,0,1.57.32,2.79.96,3.66.64.87,1.52,1.3,2.64,1.3ZM324.68,172.98c.56,0,1,.37,1.31,1.1.31.74.47,1.8.47,3.21,0,2.12-.5,3.18-1.49,3.18-.57,0-1.01-.37-1.31-1.13-.3-.75-.45-1.81-.45-3.18,0-2.12.49-3.18,1.47-3.18Z"/>
      <path class="cls-5" d="M331.8,178.99l-2.48,2.73h7.36l.35-2.33c-.31.51-.9.77-1.76.77h-2.48c1.17-1.28,1.98-2.22,2.43-2.81.45-.59.79-1.12,1.01-1.6.23-.48.34-.93.34-1.36,0-.88-.31-1.58-.92-2.11-.61-.53-1.4-.79-2.36-.79-1.13,0-2.04.28-2.73.85-.69.57-1.03,1.28-1.03,2.14,0,.5.14.93.41,1.28.28.36.61.59,1,.7l1.34-1.46c-.29-.06-.51-.18-.66-.36-.15-.18-.23-.39-.23-.62,0-.28.12-.54.37-.77.25-.23.59-.35,1.04-.35s.86.15,1.17.46c.31.31.47.72.47,1.25s-.17,1.06-.5,1.64c-.33.58-1.05,1.49-2.16,2.72Z"/>
      <path class="cls-12" d="M341.98,180.13c0,.42-.06.78-.18,1.07-.12.29-.27.47-.45.53h3.15c-.19-.06-.34-.23-.46-.53-.12-.29-.17-.64-.17-1.05v-.78h1.31v-1.46h-1.31v-6.19h-2.51l-3.84,7.13v.51h4.46v.77ZM339.6,177.91l2.37-4.46v4.46h-2.37Z"/>
    </g>
    <text class="cls-9" transform="translate(150.16 322.33)"><tspan x="0" y="0">FOOD BAR</tspan></text>
  </g>
</svg>